<?xml version="1.0" encoding="utf-8"?>
<svg width="434.8877px" height="284.6272px" viewBox="0 0 434.8877 284.6272" version="1.1" xmlns:xlink="http://www.w3.org/1999/xlink" xmlns="http://www.w3.org/2000/svg">
  <defs>
    <linearGradient gradientUnits="userSpaceOnUse" x1="-12.998271" y1="-53.99282" x2="443.8847" y2="346.6174" id="gradient_1">
      <stop offset="0%" stop-color="#FFFFFF" />
      <stop offset="3.3243601%" stop-color="#FEFEFE" />
      <stop offset="100%" stop-color="#EDF8FE" />
    </linearGradient>
  </defs>
  <g id="cloud1" transform="translate(6 6)">
    <path d="M43.6029 93.0603C43.6029 93.0603 14.9709 88.8317 1.85799 140.554C-4.56882 165.904 6.79471 184.208 18.8555 195.796C30.9162 207.385 50.1021 212.545 50.1021 212.545C50.1021 212.545 55.3368 253.442 95.3465 265.787C135.356 278.133 163.338 251.289 163.338 251.289C163.338 251.289 186.197 274.246 210.33 272.536C234.463 270.827 251.324 251.289 251.324 251.289C251.324 251.289 278.919 283.489 316.316 265.787C353.712 248.085 356.811 219.794 356.811 219.794C356.811 219.794 417.421 231.809 422.552 169.05C427.684 106.292 372.211 100.365 372.211 100.365C372.211 100.365 369.297 51.8876 345.315 39.0675C308.799 19.5466 284.573 39.0675 284.573 39.0675C284.573 39.0675 291.546 21.213 258.075 4.57203C224.603 -12.0689 196.834 22.0698 196.834 22.0698C196.834 22.0698 198.561 7.15888 163.338 4.57183C128.115 1.98478 112.344 39.0675 112.344 39.0675C112.344 39.0675 96.5716 24.0546 67.8491 44.8167C39.1269 65.5789 43.6029 93.0603 43.6029 93.0603Z" id="New-shape" fill="url(#gradient_1)" fill-rule="evenodd" stroke="#000000" stroke-width="12" />
  </g>
</svg>