<?xml version="1.0" encoding="utf-8"?>
<svg width="375.0459px" height="246.04858px" viewBox="0 0 375.0459 246.04858" version="1.1" xmlns:xlink="http://www.w3.org/1999/xlink" xmlns="http://www.w3.org/2000/svg">
  <defs>
    <linearGradient gradientUnits="userSpaceOnUse" x1="-11.158923" y1="-46.35245" x2="381.07184" y2="297.5686" id="gradient_1">
      <stop offset="0%" stop-color="#FFFFFF" />
      <stop offset="3.3243601%" stop-color="#FEFEFE" />
      <stop offset="100%" stop-color="#EDF8FE" />
    </linearGradient>
  </defs>
  <g id="cloud2" transform="translate(6 6)">
    <path d="M37.4328 79.8916C37.4328 79.8916 12.8524 76.2614 1.59507 120.664C-3.9223 142.427 5.83321 158.142 16.1873 168.09C26.5413 178.038 43.0123 182.468 43.0123 182.468C43.0123 182.468 47.5062 217.578 81.8543 228.176C116.202 238.775 140.225 215.73 140.225 215.73C140.225 215.73 159.848 235.438 180.567 233.971C201.285 232.503 215.76 215.73 215.76 215.73C215.76 215.73 239.45 243.373 271.555 228.176C303.659 212.98 306.32 188.691 306.32 188.691C306.32 188.691 358.353 199.006 362.758 145.128C367.163 91.2505 319.54 86.1628 319.54 86.1628C319.54 86.1628 317.039 44.5452 296.451 33.5392C265.102 16.7806 244.304 33.5392 244.304 33.5392C244.304 33.5392 250.29 18.2112 221.555 3.92506C192.82 -10.3611 168.98 18.9467 168.98 18.9467C168.98 18.9467 170.463 6.14585 140.225 3.92488C109.986 1.70392 96.4468 33.5392 96.4468 33.5392C96.4468 33.5392 82.906 20.6507 58.248 38.4748C33.5901 56.299 37.4328 79.8916 37.4328 79.8916Z" id="New-shape-2" fill="url(#gradient_1)" fill-rule="evenodd" stroke="#000000" stroke-width="12" />
  </g>
</svg>