<?xml version="1.0" encoding="utf-8"?>
<svg width="302.13477px" height="199.04431px" viewBox="0 0 302.13477 199.04431" version="1.1" xmlns:xlink="http://www.w3.org/1999/xlink" xmlns="http://www.w3.org/2000/svg">
  <defs>
    <linearGradient gradientUnits="userSpaceOnUse" x1="-8.917861" y1="-37.043423" x2="304.54065" y2="237.80748" id="gradient_1">
      <stop offset="0%" stop-color="#FFFFFF" />
      <stop offset="3.3243601%" stop-color="#FEFEFE" />
      <stop offset="100%" stop-color="#EDF8FE" />
    </linearGradient>
  </defs>
  <g id="cloud3" transform="translate(6 6)">
    <path d="M29.9151 63.8468C29.9151 63.8468 10.2713 60.9457 1.27473 96.4313C-3.13458 113.823 4.66172 126.382 12.9364 134.332C21.211 142.283 34.3741 145.823 34.3741 145.823C34.3741 145.823 37.9655 173.882 65.4154 182.351C92.8652 190.821 112.063 172.405 112.063 172.405C112.063 172.405 127.746 188.155 144.303 186.982C160.861 185.809 172.429 172.405 172.429 172.405C172.429 172.405 191.361 194.496 217.018 182.351C242.675 170.207 244.801 150.796 244.801 150.796C244.801 150.796 286.384 159.04 289.905 115.982C293.425 72.9245 255.367 68.8586 255.367 68.8586C255.367 68.8586 253.367 35.5991 236.914 26.8035C211.861 13.4105 195.24 26.8035 195.24 26.8035C195.24 26.8035 200.024 14.5538 177.06 3.13678C154.096 -8.28026 135.044 15.1416 135.044 15.1416C135.044 15.1416 136.229 4.91157 112.063 3.13664C87.8972 1.36172 77.0772 26.8035 77.0772 26.8035C77.0772 26.8035 66.2559 16.5034 46.5499 30.7479C26.8442 44.9924 29.9151 63.8468 29.9151 63.8468Z" id="New-shape-2" fill="url(#gradient_1)" fill-rule="evenodd" stroke="#000000" stroke-width="12" />
  </g>
</svg>