<?xml version="1.0" encoding="utf-8"?>
<svg width="616px" height="362px" viewBox="0 0 616 362" version="1.1" xmlns:xlink="http://www.w3.org/1999/xlink" xmlns="http://www.w3.org/2000/svg">
  <defs>
    <linearGradient gradientUnits="userSpaceOnUse" x1="385.51337" y1="-92.65388" x2="221.44998" y2="239.11821" id="gradient_1">
      <stop offset="0%" stop-color="#F0F747" />
      <stop offset="100%" stop-color="#E8BD00" />
    </linearGradient>
    <filter filterUnits="userSpaceOnUse" color-interpolation-filters="sRGB" id="filter_1">
      <feFlood flood-opacity="0" result="BackgroundImageFix" />
      <feColorMatrix in="SourceAlpha" type="matrix" values="0 0 0 0 0 0 0 0 0 0 0 0 0 0 0 0 0 0 127 0" />
      <feOffset dx="0" dy="2" />
      <feGaussianBlur stdDeviation="2" />
      <feColorMatrix type="matrix" values="0 0 0 0 0.39215687 0 0 0 0 0.39215687 0 0 0 0 0.39215687 0 0 0 0.49803922 0" />
      <feBlend mode="normal" in2="BackgroundImageFix" result="effect0_dropShadow" />
      <feBlend mode="normal" in="SourceGraphic" in2="effect0_dropShadow" result="shape" />
      <feGaussianBlur stdDeviation="25" result="effect1_gaussianBlur" />
    </filter>
  </defs>
  <g id="tint" transform="translate(75 75)">
    <path d="M465.302 95.8613C458.135 57.7122 404.781 0 249.268 0C93.7538 0 -2.51434 55.388 0.0499876 104.657C2.61431 153.926 49.667 206.086 238.005 211.727C426.343 217.368 472.469 134.01 465.302 95.8613ZM247.495 27.6919C124.224 27.6919 38.5067 73.1423 37.808 106.004C37.1093 138.865 109.069 180.274 232.34 180.274C355.61 180.274 432.819 134.312 428.92 106.004C425.022 77.6947 370.766 27.6919 247.495 27.6919Z" id="Ellipse-3-Difference" fill="url(#gradient_1)" fill-opacity="0.67" fill-rule="evenodd" stroke="none" filter="url(#filter_1)" />
  </g>
</svg>