<?xml version="1.0" encoding="utf-8"?>
<svg width="215px" height="214.99997px" viewBox="0 0 215 214.99997" version="1.1" xmlns:xlink="http://www.w3.org/1999/xlink" xmlns="http://www.w3.org/2000/svg">
  <g id="icon_money">
    <path d="M168.001 0L46.999 0Q45.8452 0 44.6929 0.0566123Q43.5405 0.113225 42.3923 0.226313Q41.2441 0.339401 40.1028 0.508693Q38.9615 0.677985 37.8299 0.903072Q36.6984 1.12816 35.5792 1.4085Q34.46 1.68884 33.3559 2.02376Q32.2518 2.35868 31.1655 2.74737Q30.0792 3.13606 29.0133 3.57759Q27.9473 4.01911 26.9043 4.51241Q25.8613 5.0057 24.8438 5.54958Q23.8263 6.09346 22.8367 6.68661Q21.8471 7.27976 20.8877 7.92076Q19.9284 8.56176 19.0017 9.24905Q18.075 9.93634 17.1831 10.6683Q16.2913 11.4002 15.4364 12.175Q14.5815 12.9499 13.7657 13.7657Q12.9499 14.5815 12.175 15.4364Q11.4002 16.2913 10.6683 17.1831Q9.93634 18.075 9.24905 19.0017Q8.56175 19.9284 7.92076 20.8878Q7.27976 21.8471 6.68661 22.8367Q6.09346 23.8263 5.54958 24.8438Q5.0057 25.8614 4.51241 26.9043Q4.01911 27.9473 3.57758 29.0133Q3.13606 30.0792 2.74737 31.1655Q2.35868 32.2518 2.02376 33.3559Q1.68884 34.46 1.4085 35.5792Q1.12816 36.6984 0.903072 37.8299Q0.677985 38.9615 0.508693 40.1028Q0.339401 41.2441 0.226313 42.3923Q0.113225 43.5405 0.0566123 44.6929Q0 45.8452 0 46.999L0 168.001Q0 169.155 0.0566123 170.307Q0.113225 171.459 0.226313 172.608Q0.339401 173.756 0.508693 174.897Q0.677985 176.038 0.903072 177.17Q1.12816 178.302 1.4085 179.421Q1.68884 180.54 2.02376 181.644Q2.35868 182.748 2.74737 183.834Q3.13606 184.921 3.57759 185.987Q4.01911 187.053 4.51241 188.096Q5.0057 189.139 5.54958 190.156Q6.09346 191.174 6.68661 192.163Q7.27976 193.153 7.92076 194.112Q8.56176 195.072 9.24905 195.998Q9.93634 196.925 10.6683 197.817Q11.4002 198.709 12.175 199.564Q12.9499 200.418 13.7657 201.234Q14.5815 202.05 15.4364 202.825Q16.2913 203.6 17.1831 204.332Q18.075 205.064 19.0017 205.751Q19.9284 206.438 20.8878 207.079Q21.8471 207.72 22.8367 208.313Q23.8263 208.907 24.8438 209.45Q25.8614 209.994 26.9043 210.488Q27.9473 210.981 29.0133 211.422Q30.0792 211.864 31.1655 212.253Q32.2518 212.641 33.3559 212.976Q34.46 213.311 35.5792 213.591Q36.6984 213.872 37.8299 214.097Q38.9615 214.322 40.1028 214.491Q41.2441 214.661 42.3923 214.774Q43.5405 214.887 44.6929 214.943Q45.8452 215 46.999 215L168.001 215Q169.155 215 170.307 214.943Q171.459 214.887 172.608 214.774Q173.756 214.661 174.897 214.491Q176.038 214.322 177.17 214.097Q178.302 213.872 179.421 213.591Q180.54 213.311 181.644 212.976Q182.748 212.641 183.834 212.253Q184.921 211.864 185.987 211.422Q187.053 210.981 188.096 210.488Q189.139 209.994 190.156 209.45Q191.174 208.907 192.163 208.313Q193.153 207.72 194.112 207.079Q195.072 206.438 195.998 205.751Q196.925 205.064 197.817 204.332Q198.709 203.6 199.564 202.825Q200.418 202.05 201.234 201.234Q202.05 200.418 202.825 199.564Q203.6 198.709 204.332 197.817Q205.064 196.925 205.751 195.998Q206.438 195.072 207.079 194.112Q207.72 193.153 208.313 192.163Q208.907 191.174 209.45 190.156Q209.994 189.139 210.488 188.096Q210.981 187.053 211.422 185.987Q211.864 184.921 212.253 183.834Q212.641 182.748 212.976 181.644Q213.311 180.54 213.591 179.421Q213.872 178.302 214.097 177.17Q214.322 176.038 214.491 174.897Q214.661 173.756 214.774 172.608Q214.887 171.459 214.943 170.307Q215 169.155 215 168.001L215 46.999Q215 45.8452 214.943 44.6929Q214.887 43.5405 214.774 42.3923Q214.661 41.2441 214.491 40.1028Q214.322 38.9615 214.097 37.8299Q213.872 36.6984 213.591 35.5792Q213.311 34.46 212.976 33.3559Q212.641 32.2518 212.253 31.1655Q211.864 30.0792 211.422 29.0133Q210.981 27.9473 210.488 26.9043Q209.994 25.8613 209.45 24.8438Q208.907 23.8263 208.313 22.8367Q207.72 21.8471 207.079 20.8878Q206.438 19.9284 205.751 19.0017Q205.064 18.075 204.332 17.1831Q203.6 16.2913 202.825 15.4364Q202.05 14.5815 201.234 13.7657Q200.418 12.9499 199.564 12.175Q198.709 11.4002 197.817 10.6683Q196.925 9.93634 195.998 9.24905Q195.072 8.56175 194.112 7.92076Q193.153 7.27976 192.163 6.68661Q191.174 6.09346 190.156 5.54958Q189.139 5.0057 188.096 4.51241Q187.053 4.01911 185.987 3.57759Q184.921 3.13606 183.834 2.74737Q182.748 2.35868 181.644 2.02376Q180.54 1.68884 179.421 1.4085Q178.302 1.12816 177.17 0.903072Q176.038 0.677985 174.897 0.508693Q173.756 0.339401 172.608 0.226313Q171.459 0.113225 170.307 0.0566123Q169.155 0 168.001 0ZM96.6152 55.9362L94 27.3546C94 27.3546 99.8443 24 105.094 24C110.344 24 117.5 27.3546 117.5 27.3546L114.806 55.3231Q122.818 56.1061 129.377 58.7866Q138.642 62.5732 144.967 68.656Q151.291 74.7388 154.755 82.3926Q158.22 90.0464 158.784 97.7002L121.965 101.648Q122.368 98.5864 122.489 95.4846C122.569 93.4167 122.609 91.3623 122.609 89.3213C122.609 84.6484 122.287 79.9219 121.643 75.1416C119.816 74.8731 118.004 74.6851 116.204 74.5776C115.649 74.5445 115.093 74.5165 114.536 74.4936L115.001 110.195C116.984 110.551 118.97 110.938 120.958 111.356Q128.813 113.008 136.104 115.465C140.965 117.103 145.262 119.144 148.995 121.588C152.728 124.032 155.722 126.986 157.978 130.45Q161.362 135.647 161.362 142.737Q161.362 153.21 157.213 160.421Q153.063 167.632 145.692 172.103Q138.32 176.575 128.168 178.549Q122.333 179.683 115.912 180.166L116.004 187.187C116.004 187.187 110.073 187.289 104.824 187.198C99.5749 187.106 92.5072 186.776 92.5072 186.776L92.8033 179.112Q88.0746 178.108 83.4541 176.293Q77.8145 174.077 72.6582 170.693Q67.502 167.31 63.4333 162.516Q59.3647 157.722 56.5852 151.519Q53.8057 145.315 53 137.5L88.127 136.775Q87.9658 139.031 87.9658 141.367L87.9658 146.201Q87.9658 153.21 88.4492 160.542Q90.9751 160.842 93.501 161.05L94.797 127.499C90.5242 126.526 86.327 125.308 82.2053 123.844Q74.8335 121.226 69.0327 116.915Q63.2319 112.605 59.687 106.321Q56.1421 100.037 56.1421 91.0938Q56.1421 84.8902 58.4382 79.8145Q60.7344 74.7388 64.6418 70.7507Q68.5493 66.7627 73.7458 63.7817Q78.9424 60.8008 84.7029 58.8672Q90.4634 56.9336 96.4253 55.9668Q96.5207 55.9513 96.6152 55.9362ZM88.7715 77.0752Q92.8046 76.1108 96.8059 75.4962L95.5721 107.435Q93.1125 107.113 90.7856 106.804Q89.4966 101.326 89.0535 95.8875Q88.6104 90.4492 88.6104 84.8096L88.6104 81.0229Q88.6104 79.0894 88.7715 77.0752ZM115.668 161.407L115.268 130.738C118.956 131.146 122.289 131.52 125.268 131.86C125.859 134.868 126.342 137.876 126.718 140.884C127.094 143.892 127.282 146.873 127.282 149.827Q127.282 152.566 127.041 155.184C126.879 156.93 126.665 158.716 126.396 160.542Q121.562 161.106 116.889 161.348Q116.279 161.379 115.668 161.407Z" id="Rectangle-2-Difference" fill="#D3D3D3" fill-rule="evenodd" stroke="none" />
  </g>
</svg>