<?xml version="1.0" encoding="utf-8"?>
<svg width="215px" height="215px" viewBox="0 0 215 215" version="1.1" xmlns:xlink="http://www.w3.org/1999/xlink" xmlns="http://www.w3.org/2000/svg">
  <g id="icon_team">
    <path d="M168.001 0L46.999 0Q45.8452 0 44.6929 0.0566123Q43.5405 0.113225 42.3923 0.226313Q41.2441 0.339401 40.1028 0.508693Q38.9615 0.677985 37.8299 0.903072Q36.6984 1.12816 35.5792 1.4085Q34.46 1.68884 33.3559 2.02376Q32.2518 2.35868 31.1655 2.74737Q30.0792 3.13606 29.0133 3.57759Q27.9473 4.01911 26.9043 4.51241Q25.8613 5.0057 24.8438 5.54958Q23.8263 6.09346 22.8367 6.68661Q21.8471 7.27976 20.8877 7.92076Q19.9284 8.56176 19.0017 9.24905Q18.075 9.93634 17.1831 10.6683Q16.2913 11.4002 15.4364 12.175Q14.5815 12.9499 13.7657 13.7657Q12.9499 14.5815 12.175 15.4364Q11.4002 16.2913 10.6683 17.1831Q9.93634 18.075 9.24905 19.0017Q8.56175 19.9284 7.92076 20.8878Q7.27976 21.8471 6.68661 22.8367Q6.09346 23.8263 5.54958 24.8438Q5.0057 25.8614 4.51241 26.9043Q4.01911 27.9473 3.57758 29.0133Q3.13606 30.0792 2.74737 31.1655Q2.35868 32.2518 2.02376 33.3559Q1.68884 34.46 1.4085 35.5792Q1.12816 36.6984 0.903072 37.8299Q0.677985 38.9615 0.508693 40.1028Q0.339401 41.2441 0.226313 42.3923Q0.113225 43.5405 0.0566123 44.6929Q0 45.8452 0 46.999L0 168.001Q0 169.155 0.0566123 170.307Q0.113225 171.459 0.226313 172.608Q0.339401 173.756 0.508693 174.897Q0.677985 176.038 0.903072 177.17Q1.12816 178.302 1.4085 179.421Q1.68884 180.54 2.02376 181.644Q2.35868 182.748 2.74737 183.834Q3.13606 184.921 3.57759 185.987Q4.01911 187.053 4.51241 188.096Q5.0057 189.139 5.54958 190.156Q6.09346 191.174 6.68661 192.163Q7.27976 193.153 7.92076 194.112Q8.56176 195.072 9.24905 195.998Q9.93634 196.925 10.6683 197.817Q11.4002 198.709 12.175 199.564Q12.9499 200.418 13.7657 201.234Q14.5815 202.05 15.4364 202.825Q16.2913 203.6 17.1831 204.332Q18.075 205.064 19.0017 205.751Q19.9284 206.438 20.8878 207.079Q21.8471 207.72 22.8367 208.313Q23.8263 208.907 24.8438 209.45Q25.8614 209.994 26.9043 210.488Q27.9473 210.981 29.0133 211.422Q30.0792 211.864 31.1655 212.253Q32.2518 212.641 33.3559 212.976Q34.46 213.311 35.5792 213.591Q36.6984 213.872 37.8299 214.097Q38.9615 214.322 40.1028 214.491Q41.2441 214.661 42.3923 214.774Q43.5405 214.887 44.6929 214.943Q45.8452 215 46.999 215L168.001 215Q169.155 215 170.307 214.943Q171.459 214.887 172.608 214.774Q173.756 214.661 174.897 214.491Q176.038 214.322 177.17 214.097Q178.302 213.872 179.421 213.591Q180.54 213.311 181.644 212.976Q182.748 212.641 183.834 212.253Q184.921 211.864 185.987 211.422Q187.053 210.981 188.096 210.488Q189.139 209.994 190.156 209.45Q191.174 208.907 192.163 208.313Q193.153 207.72 194.112 207.079Q195.072 206.438 195.998 205.751Q196.925 205.064 197.817 204.332Q198.709 203.6 199.564 202.825Q200.418 202.05 201.234 201.234Q202.05 200.418 202.825 199.564Q203.6 198.709 204.332 197.817Q205.064 196.925 205.751 195.998Q206.438 195.072 207.079 194.112Q207.72 193.153 208.313 192.163Q208.907 191.174 209.45 190.156Q209.994 189.139 210.488 188.096Q210.981 187.053 211.422 185.987Q211.864 184.921 212.253 183.834Q212.641 182.748 212.976 181.644Q213.311 180.54 213.591 179.421Q213.872 178.302 214.097 177.17Q214.322 176.038 214.491 174.897Q214.661 173.756 214.774 172.608Q214.887 171.459 214.943 170.307Q215 169.155 215 168.001L215 46.999Q215 45.8452 214.943 44.6929Q214.887 43.5405 214.774 42.3923Q214.661 41.2441 214.491 40.1028Q214.322 38.9615 214.097 37.8299Q213.872 36.6984 213.591 35.5792Q213.311 34.46 212.976 33.3559Q212.641 32.2518 212.253 31.1655Q211.864 30.0792 211.422 29.0133Q210.981 27.9473 210.488 26.9043Q209.994 25.8613 209.45 24.8438Q208.907 23.8263 208.313 22.8367Q207.72 21.8471 207.079 20.8878Q206.438 19.9284 205.751 19.0017Q205.064 18.075 204.332 17.1831Q203.6 16.2913 202.825 15.4364Q202.05 14.5815 201.234 13.7657Q200.418 12.9499 199.564 12.175Q198.709 11.4002 197.817 10.6683Q196.925 9.93634 195.998 9.24905Q195.072 8.56175 194.112 7.92076Q193.153 7.27976 192.163 6.68661Q191.174 6.09346 190.156 5.54958Q189.139 5.0057 188.096 4.51241Q187.053 4.01911 185.987 3.57759Q184.921 3.13606 183.834 2.74737Q182.748 2.35868 181.644 2.02376Q180.54 1.68884 179.421 1.4085Q178.302 1.12816 177.17 0.903072Q176.038 0.677985 174.897 0.508693Q173.756 0.339401 172.608 0.226313Q171.459 0.113225 170.307 0.0566123Q169.155 0 168.001 0ZM106.925 156.225L61.841 178.767Q61.6498 178.863 61.4523 178.944Q61.2548 179.026 61.0519 179.094Q60.8491 179.161 60.642 179.214Q60.4349 179.267 60.2246 179.305Q60.0142 179.343 59.8017 179.366Q59.5892 179.389 59.3756 179.396Q59.162 179.404 58.9483 179.397Q58.7347 179.389 58.5222 179.367Q58.3096 179.344 58.0992 179.306Q57.8888 179.268 57.6817 179.216Q57.4745 179.163 57.2716 179.096Q57.0687 179.029 56.8711 178.947Q56.6735 178.866 56.4822 178.77Q56.2908 178.675 56.1068 178.566Q55.9228 178.458 55.7469 178.336Q55.5711 178.215 55.4044 178.081Q55.2376 177.947 55.0808 177.802Q54.9241 177.656 54.778 177.5Q54.6319 177.344 54.4974 177.178Q54.3628 177.012 54.2404 176.837Q54.118 176.662 54.0083 176.478Q53.8987 176.295 53.8024 176.104Q53.7061 175.913 53.6236 175.716Q53.5411 175.519 53.4729 175.316Q53.4047 175.114 53.3511 174.907Q53.2974 174.7 53.2586 174.49Q53.2199 174.279 53.1962 174.067Q53.1724 173.855 53.1639 173.641Q53.1554 173.427 53.1621 173.214Q53.1687 173 53.1906 172.787Q53.2125 172.575 53.2494 172.364Q53.2864 172.154 53.3382 171.946L63.5883 130.946Q63.6773 130.59 63.7223 130.226Q63.7672 129.861 63.7674 129.494Q63.7676 129.127 63.7231 128.763Q63.6785 128.399 63.5898 128.042Q63.5012 127.686 63.3698 127.343Q63.2384 127.001 63.0661 126.676Q62.8939 126.352 62.6834 126.052Q62.473 125.751 62.2274 125.478L29.9535 89.618Q29.8138 89.4628 29.6852 89.2983Q29.5567 89.1337 29.4399 88.9607Q29.3231 88.7876 29.2186 88.6068Q29.1141 88.426 29.0224 88.2384Q28.9307 88.0507 28.8523 87.8572Q28.774 87.6637 28.7092 87.4651Q28.6444 87.2666 28.5937 87.0641Q28.5429 86.8615 28.5063 86.6559Q28.4697 86.4504 28.4475 86.2427Q28.4253 86.0351 28.4176 85.8264Q28.4099 85.6177 28.4167 85.409Q28.4235 85.2003 28.4448 84.9926Q28.4661 84.7849 28.5019 84.5791Q28.5376 84.3734 28.5875 84.1706Q28.6374 83.9679 28.7013 83.7691Q28.7652 83.5703 28.8428 83.3764Q28.9204 83.1825 29.0112 82.9945Q29.1021 82.8065 29.2058 82.6253Q29.3095 82.4441 29.4256 82.2705Q29.5417 82.0969 29.6695 81.9318Q29.7974 81.7667 29.9364 81.6109Q30.0754 81.4551 30.2249 81.3093Q30.3745 81.1635 30.5338 81.0285Q30.6931 80.8935 30.8614 80.7699Q31.0297 80.6463 31.2062 80.5347Q31.3826 80.4231 31.5665 80.324Q31.7503 80.225 31.9405 80.1389Q32.1308 80.0529 32.3266 79.9803Q32.5224 79.9077 32.7227 79.8488Q32.9231 79.79 33.1271 79.7453Q33.331 79.7005 33.5376 79.6701Q33.7442 79.6396 33.9524 79.6236L79.7446 76.1011Q79.9442 76.0858 80.1423 76.0571Q80.3405 76.0285 80.5362 75.9867Q80.732 75.945 80.9245 75.8903Q81.1171 75.8355 81.3056 75.7681Q81.4941 75.7006 81.6776 75.6208Q81.8612 75.5409 82.039 75.449Q82.2168 75.3571 82.3881 75.2535Q82.5594 75.15 82.7235 75.0352Q82.8875 74.9205 83.0435 74.7951Q83.1995 74.6696 83.3468 74.5341Q83.4941 74.3985 83.632 74.2534Q83.77 74.1084 83.8979 73.9544Q84.0259 73.8005 84.1433 73.6384Q84.2607 73.4762 84.367 73.3066Q84.4734 73.137 84.5682 72.9607Q84.663 72.7844 84.7458 72.6022L101.464 35.8232Q101.552 35.6279 101.655 35.4394Q101.757 35.2509 101.873 35.0702Q101.989 34.8895 102.117 34.7175Q102.246 34.5455 102.386 34.3832Q102.526 34.2208 102.678 34.0689Q102.829 33.917 102.991 33.7763Q103.153 33.6356 103.325 33.5068Q103.497 33.378 103.677 33.2618Q103.857 33.1457 104.046 33.0427Q104.234 32.9397 104.429 32.8504Q104.624 32.7612 104.825 32.6861Q105.026 32.611 105.232 32.5504Q105.438 32.4899 105.648 32.4442Q105.857 32.3985 106.07 32.3679Q106.282 32.3373 106.496 32.322Q106.71 32.3067 106.925 32.3066Q107.139 32.3067 107.353 32.322Q107.567 32.3373 107.78 32.3679Q107.992 32.3985 108.202 32.4442Q108.412 32.4899 108.617 32.5504Q108.823 32.611 109.024 32.6861Q109.225 32.7612 109.421 32.8504Q109.616 32.9397 109.804 33.0427Q109.992 33.1457 110.173 33.2618Q110.353 33.378 110.525 33.5068Q110.696 33.6356 110.858 33.7763Q111.02 33.917 111.172 34.0689Q111.323 34.2208 111.464 34.3832Q111.604 34.5455 111.732 34.7175Q111.861 34.8895 111.977 35.0702Q112.092 35.2509 112.195 35.4394Q112.297 35.6279 112.386 35.8232L129.104 72.6022Q129.187 72.7844 129.281 72.9607Q129.376 73.137 129.483 73.3066Q129.589 73.4762 129.706 73.6384Q129.824 73.8005 129.952 73.9544Q130.08 74.1084 130.218 74.2534Q130.355 74.3985 130.503 74.5341Q130.65 74.6696 130.806 74.7951Q130.962 74.9205 131.126 75.0352Q131.29 75.15 131.461 75.2536Q131.633 75.3571 131.811 75.449Q131.988 75.5409 132.172 75.6208Q132.356 75.7006 132.544 75.7681Q132.733 75.8355 132.925 75.8903Q133.118 75.945 133.313 75.9867Q133.509 76.0285 133.707 76.0571Q133.905 76.0858 134.105 76.1011L179.897 79.6236Q180.105 79.6396 180.312 79.6701Q180.519 79.7005 180.723 79.7453Q180.927 79.79 181.127 79.8488Q181.327 79.9077 181.523 79.9803Q181.719 80.0529 181.909 80.1389Q182.099 80.225 182.283 80.324Q182.467 80.4231 182.643 80.5347Q182.82 80.6463 182.988 80.7699Q183.157 80.8935 183.316 81.0285Q183.475 81.1635 183.625 81.3093Q183.774 81.4551 183.913 81.6109Q184.052 81.7667 184.18 81.9318Q184.308 82.0969 184.424 82.2705Q184.54 82.4441 184.644 82.6253Q184.748 82.8065 184.838 82.9945Q184.929 83.1825 185.007 83.3764Q185.084 83.5703 185.148 83.7691Q185.212 83.9679 185.262 84.1706Q185.312 84.3734 185.348 84.5791Q185.383 84.7849 185.405 84.9926Q185.426 85.2003 185.433 85.409Q185.44 85.6177 185.432 85.8264Q185.424 86.0351 185.402 86.2427Q185.38 86.4504 185.343 86.6559Q185.307 86.8615 185.256 87.0641Q185.205 87.2666 185.14 87.4651Q185.076 87.6637 184.997 87.8572Q184.919 88.0507 184.827 88.2384Q184.736 88.426 184.631 88.6068Q184.527 88.7876 184.41 88.9607Q184.293 89.1337 184.164 89.2983Q184.036 89.4628 183.896 89.618L151.622 125.478Q151.377 125.751 151.166 126.052Q150.956 126.352 150.783 126.676Q150.611 127.001 150.48 127.343Q150.348 127.686 150.26 128.042Q150.171 128.399 150.127 128.763Q150.082 129.127 150.082 129.494Q150.082 129.861 150.127 130.226Q150.172 130.59 150.261 130.946L160.511 171.946Q160.563 172.154 160.6 172.364Q160.637 172.575 160.659 172.787Q160.681 173 160.688 173.214Q160.694 173.427 160.686 173.641Q160.677 173.855 160.653 174.067Q160.63 174.279 160.591 174.49Q160.552 174.7 160.499 174.907Q160.445 175.114 160.377 175.316Q160.308 175.519 160.226 175.716Q160.144 175.913 160.047 176.104Q159.951 176.295 159.841 176.478Q159.732 176.662 159.609 176.837Q159.487 177.012 159.352 177.178Q159.218 177.344 159.072 177.5Q158.926 177.656 158.769 177.802Q158.612 177.947 158.445 178.081Q158.278 178.215 158.103 178.336Q157.927 178.458 157.743 178.566Q157.559 178.675 157.367 178.77Q157.176 178.866 156.979 178.947Q156.781 179.029 156.578 179.096Q156.375 179.163 156.168 179.216Q155.961 179.268 155.75 179.306Q155.54 179.344 155.327 179.367Q155.115 179.389 154.901 179.397Q154.688 179.404 154.474 179.396Q154.26 179.389 154.048 179.366Q153.835 179.343 153.625 179.305Q153.415 179.267 153.208 179.214Q153 179.161 152.798 179.094Q152.595 179.026 152.397 178.944Q152.2 178.863 152.009 178.767L106.925 156.225Z" id="Rectangle-2-Difference-Difference-Difference-Difference" fill="#D3D3D3" fill-rule="evenodd" stroke="none" />
  </g>
</svg>