<?xml version="1.0" encoding="utf-8"?>
<svg width="215px" height="215px" viewBox="0 0 215 215" version="1.1" xmlns:xlink="http://www.w3.org/1999/xlink" xmlns="http://www.w3.org/2000/svg">
  <g id="icon_eco">
    <path d="M168.001 0L46.999 0Q45.8452 0 44.6929 0.0566123Q43.5405 0.113225 42.3923 0.226313Q41.2441 0.339401 40.1028 0.508693Q38.9615 0.677985 37.8299 0.903072Q36.6984 1.12816 35.5792 1.4085Q34.46 1.68884 33.3559 2.02376Q32.2518 2.35868 31.1655 2.74737Q30.0792 3.13606 29.0133 3.57759Q27.9473 4.01911 26.9043 4.51241Q25.8613 5.0057 24.8438 5.54958Q23.8263 6.09346 22.8367 6.68661Q21.8471 7.27976 20.8877 7.92076Q19.9284 8.56176 19.0017 9.24905Q18.075 9.93634 17.1831 10.6683Q16.2913 11.4002 15.4364 12.175Q14.5815 12.9499 13.7657 13.7657Q12.9499 14.5815 12.175 15.4364Q11.4002 16.2913 10.6683 17.1831Q9.93634 18.075 9.24905 19.0017Q8.56175 19.9284 7.92076 20.8878Q7.27976 21.8471 6.68661 22.8367Q6.09346 23.8263 5.54958 24.8438Q5.0057 25.8614 4.51241 26.9043Q4.01911 27.9473 3.57758 29.0133Q3.13606 30.0792 2.74737 31.1655Q2.35868 32.2518 2.02376 33.3559Q1.68884 34.46 1.4085 35.5792Q1.12816 36.6984 0.903072 37.8299Q0.677985 38.9615 0.508693 40.1028Q0.339401 41.2441 0.226313 42.3923Q0.113225 43.5405 0.0566123 44.6929Q0 45.8452 0 46.999L0 168.001Q0 169.155 0.0566123 170.307Q0.113225 171.459 0.226313 172.608Q0.339401 173.756 0.508693 174.897Q0.677985 176.038 0.903072 177.17Q1.12816 178.302 1.4085 179.421Q1.68884 180.54 2.02376 181.644Q2.35868 182.748 2.74737 183.834Q3.13606 184.921 3.57759 185.987Q4.01911 187.053 4.51241 188.096Q5.0057 189.139 5.54958 190.156Q6.09346 191.174 6.68661 192.163Q7.27976 193.153 7.92076 194.112Q8.56176 195.072 9.24905 195.998Q9.93634 196.925 10.6683 197.817Q11.4002 198.709 12.175 199.564Q12.9499 200.418 13.7657 201.234Q14.5815 202.05 15.4364 202.825Q16.2913 203.6 17.1831 204.332Q18.075 205.064 19.0017 205.751Q19.9284 206.438 20.8878 207.079Q21.8471 207.72 22.8367 208.313Q23.8263 208.907 24.8438 209.45Q25.8614 209.994 26.9043 210.488Q27.9473 210.981 29.0133 211.422Q30.0792 211.864 31.1655 212.253Q32.2518 212.641 33.3559 212.976Q34.46 213.311 35.5792 213.591Q36.6984 213.872 37.8299 214.097Q38.9615 214.322 40.1028 214.491Q41.2441 214.661 42.3923 214.774Q43.5405 214.887 44.6929 214.943Q45.8452 215 46.999 215L168.001 215Q169.155 215 170.307 214.943Q171.459 214.887 172.608 214.774Q173.756 214.661 174.897 214.491Q176.038 214.322 177.17 214.097Q178.302 213.872 179.421 213.591Q180.54 213.311 181.644 212.976Q182.748 212.641 183.834 212.253Q184.921 211.864 185.987 211.422Q187.053 210.981 188.096 210.488Q189.139 209.994 190.156 209.45Q191.174 208.907 192.163 208.313Q193.153 207.72 194.112 207.079Q195.072 206.438 195.998 205.751Q196.925 205.064 197.817 204.332Q198.709 203.6 199.564 202.825Q200.418 202.05 201.234 201.234Q202.05 200.418 202.825 199.564Q203.6 198.709 204.332 197.817Q205.064 196.925 205.751 195.998Q206.438 195.072 207.079 194.112Q207.72 193.153 208.313 192.163Q208.907 191.174 209.45 190.156Q209.994 189.139 210.488 188.096Q210.981 187.053 211.422 185.987Q211.864 184.921 212.253 183.834Q212.641 182.748 212.976 181.644Q213.311 180.54 213.591 179.421Q213.872 178.302 214.097 177.17Q214.322 176.038 214.491 174.897Q214.661 173.756 214.774 172.608Q214.887 171.459 214.943 170.307Q215 169.155 215 168.001L215 46.999Q215 45.8452 214.943 44.6929Q214.887 43.5405 214.774 42.3923Q214.661 41.2441 214.491 40.1028Q214.322 38.9615 214.097 37.8299Q213.872 36.6984 213.591 35.5792Q213.311 34.46 212.976 33.3559Q212.641 32.2518 212.253 31.1655Q211.864 30.0792 211.422 29.0133Q210.981 27.9473 210.488 26.9043Q209.994 25.8613 209.45 24.8438Q208.907 23.8263 208.313 22.8367Q207.72 21.8471 207.079 20.8878Q206.438 19.9284 205.751 19.0017Q205.064 18.075 204.332 17.1831Q203.6 16.2913 202.825 15.4364Q202.05 14.5815 201.234 13.7657Q200.418 12.9499 199.564 12.175Q198.709 11.4002 197.817 10.6683Q196.925 9.93634 195.998 9.24905Q195.072 8.56175 194.112 7.92076Q193.153 7.27976 192.163 6.68661Q191.174 6.09346 190.156 5.54958Q189.139 5.0057 188.096 4.51241Q187.053 4.01911 185.987 3.57759Q184.921 3.13606 183.834 2.74737Q182.748 2.35868 181.644 2.02376Q180.54 1.68884 179.421 1.4085Q178.302 1.12816 177.17 0.903072Q176.038 0.677985 174.897 0.508693Q173.756 0.339401 172.608 0.226313Q171.459 0.113225 170.307 0.0566123Q169.155 0 168.001 0ZM106.78 47.2459C112.537 55.3237 117.14 64.6143 120.585 72.7363L108.352 79.419L147.429 79.334L165.551 47.0536L155.924 53.1982L149.694 42.2398C145.568 36.0344 141.787 31.4985 134.007 30.8L90.6831 30.885C95.4003 33.704 101.627 40.0138 106.78 47.2459ZM72.8136 33.2467L55.6846 58.918L88.9844 79.8153L105.125 48.8374L105.114 48.8231C99.04 40.4021 89.4178 27.0626 72.8136 33.2467ZM137.235 99.8916L153.828 130.473L167.121 130.617C174.917 130.701 187.478 119.875 186.986 112.096L170.761 79.5889L137.235 99.8916ZM41.2007 87.1511L28.3516 113.358C31.5598 121.593 37.7237 128.565 46.5837 130.631C51.1275 130.711 55.6713 130.79 60.215 130.869L72.0594 105.858L84.3688 113.228L66.2181 80.2684L28.6708 80.2684L41.2007 87.1511ZM129.392 120.93L111.524 152.984L129.392 184.585L129.477 171.56L138.17 171.56C166.42 171.548 170.342 151.841 183.957 123.989C179.691 129.125 173.8 131.856 167.081 132.568L129.477 132.653L129.392 120.93ZM29.8032 123.507C38.9985 140.961 48.3786 165.729 68.4831 171.843L99.2912 171.843L99.3761 171.73L99.4611 132.88L72.8438 132.88C64.0579 132.861 55.2718 132.845 46.4859 132.825C41.9049 132.824 34.0178 127.339 29.8032 123.507Z" id="Rectangle-2-Difference-Difference" fill="#D3D3D3" fill-rule="evenodd" stroke="none" />
  </g>
</svg>