<?xml version="1.0" encoding="utf-8"?>
<svg width="215px" height="215px" viewBox="0 0 215 215" version="1.1" xmlns:xlink="http://www.w3.org/1999/xlink" xmlns="http://www.w3.org/2000/svg">
  <g id="icon_pr">
    <path d="M46.999 0L168.001 0Q169.155 0 170.307 0.0566123Q171.459 0.113225 172.608 0.226313Q173.756 0.339401 174.897 0.508693Q176.038 0.677985 177.17 0.903072Q178.302 1.12816 179.421 1.4085Q180.54 1.68884 181.644 2.02376Q182.748 2.35868 183.834 2.74737Q184.921 3.13606 185.987 3.57759Q187.053 4.01911 188.096 4.51241Q189.139 5.0057 190.156 5.54958Q191.174 6.09346 192.163 6.68661Q193.153 7.27976 194.112 7.92076Q195.072 8.56176 195.998 9.24905Q196.925 9.93634 197.817 10.6683Q198.709 11.4002 199.564 12.175Q200.418 12.9499 201.234 13.7657Q202.05 14.5815 202.825 15.4364Q203.6 16.2913 204.332 17.1831Q205.064 18.075 205.751 19.0017Q206.438 19.9284 207.079 20.8878Q207.72 21.8471 208.313 22.8367Q208.907 23.8263 209.45 24.8438Q209.994 25.8614 210.488 26.9043Q210.981 27.9473 211.422 29.0133Q211.864 30.0792 212.253 31.1655Q212.641 32.2518 212.976 33.3559Q213.311 34.46 213.591 35.5792Q213.872 36.6984 214.097 37.8299Q214.322 38.9615 214.491 40.1028Q214.661 41.2441 214.774 42.3923Q214.887 43.5405 214.943 44.6929Q215 45.8452 215 46.999L215 168.001Q215 169.155 214.943 170.307Q214.887 171.459 214.774 172.608Q214.661 173.756 214.491 174.897Q214.322 176.038 214.097 177.17Q213.872 178.302 213.591 179.421Q213.311 180.54 212.976 181.644Q212.641 182.748 212.253 183.834Q211.864 184.921 211.422 185.987Q210.981 187.053 210.488 188.096Q209.994 189.139 209.45 190.156Q208.907 191.174 208.313 192.163Q207.72 193.153 207.079 194.112Q206.438 195.072 205.751 195.998Q205.064 196.925 204.332 197.817Q203.6 198.709 202.825 199.564Q202.05 200.418 201.234 201.234Q200.418 202.05 199.564 202.825Q198.709 203.6 197.817 204.332Q196.925 205.064 195.998 205.751Q195.072 206.438 194.112 207.079Q193.153 207.72 192.163 208.313Q191.174 208.907 190.156 209.45Q189.139 209.994 188.096 210.488Q187.053 210.981 185.987 211.422Q184.921 211.864 183.834 212.253Q182.748 212.641 181.644 212.976Q180.54 213.311 179.421 213.591Q178.302 213.872 177.17 214.097Q176.038 214.322 174.897 214.491Q173.756 214.661 172.608 214.774Q171.459 214.887 170.307 214.943Q169.155 215 168.001 215L46.999 215Q45.8452 215 44.6929 214.943Q43.5405 214.887 42.3923 214.774Q41.2441 214.661 40.1028 214.491Q38.9615 214.322 37.8299 214.097Q36.6984 213.872 35.5792 213.591Q34.46 213.311 33.3559 212.976Q32.2518 212.641 31.1655 212.253Q30.0792 211.864 29.0133 211.422Q27.9473 210.981 26.9043 210.488Q25.8613 209.994 24.8438 209.45Q23.8263 208.907 22.8367 208.313Q21.8471 207.72 20.8878 207.079Q19.9284 206.438 19.0017 205.751Q18.075 205.064 17.1831 204.332Q16.2913 203.6 15.4364 202.825Q14.5815 202.05 13.7657 201.234Q12.9499 200.418 12.175 199.564Q11.4002 198.709 10.6683 197.817Q9.93634 196.925 9.24905 195.998Q8.56175 195.072 7.92076 194.112Q7.27976 193.153 6.68661 192.163Q6.09346 191.174 5.54958 190.156Q5.0057 189.139 4.51241 188.096Q4.01911 187.053 3.57759 185.987Q3.13606 184.921 2.74737 183.834Q2.35868 182.748 2.02376 181.644Q1.68884 180.54 1.4085 179.421Q1.12816 178.302 0.903072 177.17Q0.677985 176.038 0.508693 174.897Q0.339401 173.756 0.226313 172.608Q0.113225 171.459 0.0566123 170.307Q0 169.155 0 168.001L0 46.999Q0 45.8452 0.0566123 44.6929Q0.113225 43.5405 0.226313 42.3923Q0.339401 41.2441 0.508693 40.1028Q0.677985 38.9615 0.903072 37.8299Q1.12816 36.6984 1.4085 35.5792Q1.68884 34.46 2.02376 33.3559Q2.35868 32.2518 2.74737 31.1655Q3.13606 30.0792 3.57758 29.0133Q4.01911 27.9473 4.51241 26.9043Q5.0057 25.8613 5.54958 24.8438Q6.09346 23.8263 6.68661 22.8367Q7.27976 21.8471 7.92076 20.8878Q8.56175 19.9284 9.24905 19.0017Q9.93634 18.075 10.6683 17.1831Q11.4002 16.2913 12.175 15.4364Q12.9499 14.5815 13.7657 13.7657Q14.5815 12.9499 15.4364 12.175Q16.2913 11.4002 17.1831 10.6683Q18.075 9.93634 19.0017 9.24905Q19.9284 8.56175 20.8877 7.92076Q21.8471 7.27976 22.8367 6.68661Q23.8263 6.09346 24.8438 5.54958Q25.8613 5.0057 26.9043 4.51241Q27.9473 4.01911 29.0133 3.57759Q30.0792 3.13606 31.1655 2.74737Q32.2518 2.35868 33.3559 2.02376Q34.46 1.68884 35.5792 1.4085Q36.6984 1.12816 37.8299 0.903072Q38.9615 0.677985 40.1028 0.508693Q41.2441 0.339401 42.3923 0.226313Q43.5405 0.113225 44.6929 0.0566123Q45.8452 0 46.999 0ZM88.1931 78.4864L52.9932 78.4864C42.6141 78.4864 34.2002 83.7109 34.2002 90.1558L34.2002 113.495C34.2002 119.94 42.6141 125.164 52.9932 125.164L55.0107 125.164L55.0107 149.176Q55.0107 149.323 55.018 149.47Q55.0252 149.617 55.0396 149.764Q55.0541 149.911 55.0757 150.056Q55.0973 150.202 55.126 150.346Q55.1547 150.491 55.1905 150.634Q55.2263 150.776 55.2691 150.917Q55.3118 151.058 55.3614 151.197Q55.411 151.336 55.4674 151.472Q55.5237 151.608 55.5867 151.741Q55.6497 151.874 55.7191 152.004Q55.7885 152.134 55.8642 152.26Q55.9399 152.386 56.0217 152.509Q56.1036 152.631 56.1913 152.75Q56.279 152.868 56.3724 152.982Q56.4659 153.096 56.5648 153.205Q56.6637 153.314 56.7678 153.418Q56.8719 153.522 56.9811 153.621Q57.0902 153.72 57.204 153.813Q57.3179 153.907 57.4361 153.994Q57.5544 154.082 57.6769 154.164Q57.7993 154.246 57.9256 154.321Q58.052 154.397 58.1818 154.467Q58.3117 154.536 58.4448 154.599Q58.578 154.662 58.714 154.718Q58.8501 154.775 58.9887 154.824Q59.1274 154.874 59.2683 154.917Q59.4092 154.959 59.5521 154.995Q59.695 155.031 59.8394 155.06Q59.9838 155.088 60.1295 155.11Q60.2752 155.132 60.4217 155.146Q60.5683 155.161 60.7154 155.168Q60.8625 155.175 61.0097 155.175L62.2487 155.175Q62.396 155.175 62.5431 155.168Q62.6902 155.161 62.8367 155.146Q62.9833 155.132 63.1289 155.11Q63.2746 155.088 63.419 155.06Q63.5635 155.031 63.7063 154.995Q63.8492 154.959 63.9901 154.917Q64.1311 154.874 64.2697 154.824Q64.4084 154.775 64.5444 154.718Q64.6805 154.662 64.8136 154.599Q64.9467 154.536 65.0766 154.467Q65.2065 154.397 65.3328 154.321Q65.4591 154.246 65.5816 154.164Q65.704 154.082 65.8223 153.994Q65.9406 153.907 66.0544 153.813Q66.1683 153.72 66.2774 153.621Q66.3865 153.522 66.4906 153.418Q66.5948 153.314 66.6937 153.205Q66.7926 153.096 66.886 152.982Q66.9794 152.868 67.0672 152.75Q67.1549 152.631 67.2367 152.509Q67.3185 152.386 67.3942 152.26Q67.4699 152.134 67.5394 152.004Q67.6088 151.874 67.6717 151.741Q67.7347 151.608 67.7911 151.472Q67.8474 151.336 67.897 151.197Q67.9466 151.058 67.9894 150.917Q68.0321 150.776 68.0679 150.634Q68.1037 150.491 68.1324 150.346Q68.1612 150.202 68.1828 150.056Q68.2044 149.911 68.2188 149.764Q68.2333 149.617 68.2405 149.47Q68.2477 149.323 68.2477 149.176L68.2477 125.164L88.1931 125.164L128.165 154.338L128.165 49.3128L88.1931 78.4864ZM168.244 63.5774C177.961 72.5472 181.2 87.4968 181.2 99.4565C181.2 111.416 177.961 126.366 168.244 135.336L168.244 63.5774ZM148.809 81.517C152.048 84.5069 155.287 90.4868 155.287 99.4566C155.287 108.426 152.048 114.406 148.809 117.396L148.809 81.517Z" id="Rectangle-2-Difference-Difference-Difference" fill="#D3D3D3" fill-rule="evenodd" stroke="none" />
  </g>
</svg>