<?xml version="1.0" encoding="utf-8"?>
<svg width="1793.915px" height="540px" viewBox="0 0 1793.915 540" version="1.1" xmlns:xlink="http://www.w3.org/1999/xlink" xmlns="http://www.w3.org/2000/svg">
  <defs>
    <linearGradient gradientUnits="userSpaceOnUse" x1="385.51337" y1="-92.65388" x2="221.44998" y2="239.11821" id="gradient_1">
      <stop offset="0%" stop-color="#F0F747" />
      <stop offset="100%" stop-color="#E8BD00" />
    </linearGradient>
    <linearGradient gradientUnits="userSpaceOnUse" x1="369.39737" y1="-82" x2="212.19249" y2="211.62302" id="gradient_2">
      <stop offset="0%" stop-color="#F0F747" />
      <stop offset="100%" stop-color="#E8BD00" />
    </linearGradient>
    <linearGradient gradientUnits="userSpaceOnUse" x1="0" y1="0" x2="648.4575" y2="340.91937" id="gradient_3">
      <stop offset="0%" stop-color="#FFFFFF" />
      <stop offset="100%" stop-color="#CCE9FF" />
    </linearGradient>
    <linearGradient gradientUnits="userSpaceOnUse" x1="648.45996" y1="340.91937" x2="0" y2="-2.9804118E-05" id="gradient_4">
      <stop offset="0%" stop-color="#FFFFFF" />
      <stop offset="100%" stop-color="#CCE9FF" />
    </linearGradient>
    <linearGradient gradientUnits="userSpaceOnUse" x1="23.499998" y1="57.999992" x2="-11.749133" y2="-13.330287" id="gradient_5">
      <stop offset="0%" stop-color="#FFE435" />
      <stop offset="100%" stop-color="#EBFE4D" />
    </linearGradient>
    <linearGradient gradientUnits="userSpaceOnUse" x1="0" y1="0" x2="108.36182" y2="125.52246" id="gradient_6">
      <stop offset="84.5679%" stop-color="#FFE435" />
      <stop offset="100%" stop-color="#EBFE4D" />
    </linearGradient>
    <linearGradient gradientUnits="userSpaceOnUse" x1="0.20685537" y1="-0.9947482" x2="34.946236" y2="143.42491" id="gradient_7">
      <stop offset="0%" stop-color="#FFE435" />
      <stop offset="100%" stop-color="#EBFE4D" />
    </linearGradient>
    <filter filterUnits="userSpaceOnUse" color-interpolation-filters="sRGB" id="filter_1">
      <feFlood flood-opacity="0" result="BackgroundImageFix" />
      <feColorMatrix in="SourceAlpha" type="matrix" values="0 0 0 0 0 0 0 0 0 0 0 0 0 0 0 0 0 0 127 0" />
      <feOffset dx="0" dy="2" />
      <feGaussianBlur stdDeviation="2" />
      <feColorMatrix type="matrix" values="0 0 0 0 0.39215687 0 0 0 0 0.39215687 0 0 0 0 0.39215687 0 0 0 0.49803922 0" />
      <feBlend mode="normal" in2="BackgroundImageFix" result="effect0_dropShadow" />
      <feBlend mode="normal" in="SourceGraphic" in2="effect0_dropShadow" result="shape" />
      <feGaussianBlur stdDeviation="25" result="effect1_gaussianBlur" />
    </filter>
  </defs>
  <g id="logo-final" transform="translate(11.5 11.5)">
    <g id="logo-final">
      <path d="M1117.01 159.484C1109.85 121.335 1056.49 63.623 900.981 63.623C745.466 63.623 649.198 119.011 651.763 168.28C654.327 217.549 701.38 269.709 889.718 275.35C1078.06 280.991 1124.18 197.633 1117.01 159.484ZM899.207 91.3149C775.937 91.3149 690.219 136.765 689.521 169.627C688.822 202.488 760.782 243.897 884.052 243.897C1007.32 243.897 1084.53 197.935 1080.63 169.627C1076.73 141.318 1022.48 91.3149 899.207 91.3149Z" id="Ellipse-3-Difference" fill="url(#gradient_1)" fill-opacity="0.67" fill-rule="evenodd" stroke="none" filter="url(#filter_1)" />
      <path d="M1108.96 148.216C1102.09 114.453 1050.97 63.377 901.957 63.377C752.944 63.377 660.7 112.396 663.158 156C665.615 199.604 710.7 245.766 891.166 250.759C1071.63 255.751 1115.83 181.978 1108.96 148.216ZM900.258 87.8846C782.141 87.8846 700.007 128.109 699.337 157.192C698.668 186.274 767.619 222.922 885.737 222.922C1003.85 222.922 1077.83 182.245 1074.1 157.192C1070.36 132.138 1018.38 87.8846 900.258 87.8846Z" id="Ellipse-3-Difference" fill="url(#gradient_2)" fill-rule="evenodd" stroke="none" />
      <path d="M1122.46 315.233C1122.46 315.233 1212.31 344.754 1248.72 328.775C1318.78 298.02 1408.44 331.163 1434.09 337.069C1439.65 338.351 1506.06 356.481 1483.96 301.159C1483.96 301.159 1339.45 263.758 1339.45 263.758C1339.45 263.758 1423.93 284.683 1483.96 301.159C1543.98 317.634 1578.85 307.528 1589.95 301.159C1633.61 276.109 1586.45 263.756 1586.45 263.756C1586.45 263.756 1508.58 248.628 1472.46 230.655C1436.33 212.683 1426.45 206.156 1426.45 206.156C1426.45 206.156 1477.17 240.198 1530.46 249.656C1583.74 259.114 1671.34 276.993 1674.36 244.155C1675.8 228.483 1639.95 206.156 1639.95 206.156L1517.45 139.655C1517.45 139.655 1730.79 274.731 1769.45 236.155C1784.46 221.186 1680.28 144.422 1630.95 116.155C1581.61 87.8881 1444.51 -14.5883 1296.95 1.75463C1149.38 18.0976 1156.92 120.085 1185.95 168.155C1214.97 216.225 1205.2 237.305 1176.45 263.758C1147.69 290.21 1122.46 315.233 1122.46 315.233C1122.46 315.233 1122.46 315.233 1122.46 315.233Z" id="New-shape-2" fill="url(#gradient_3)" fill-rule="evenodd" stroke="#0B4870" stroke-width="12" />
      <path d="M648.46 318.214C648.46 318.214 558.606 347.735 522.201 331.756C452.135 301.001 362.474 334.144 336.827 340.05C331.262 341.332 264.86 359.462 286.961 304.14C286.961 304.14 431.465 266.739 431.465 266.739C431.465 266.739 346.987 287.663 286.961 304.14C226.934 320.615 192.065 310.509 180.965 304.14C137.305 279.09 184.465 266.737 184.465 266.737C184.465 266.737 262.335 251.608 298.461 233.636C334.587 215.664 344.462 209.136 344.462 209.136C344.462 209.136 293.742 243.179 240.46 252.636C187.178 262.095 99.5772 279.974 96.5568 247.136C95.1163 231.463 130.965 209.136 130.965 209.136L253.466 142.636C253.466 142.636 40.1269 277.711 1.4635 239.136C-13.5414 224.166 90.6307 147.402 139.967 119.136C189.303 90.8688 326.404 -11.6076 473.97 4.73535C621.535 21.0783 613.996 123.065 584.97 171.136C555.944 219.206 565.718 240.286 594.471 266.739C623.224 293.191 648.46 318.214 648.46 318.214C648.46 318.214 648.46 318.214 648.46 318.214Z" id="New-shape-2" fill="url(#gradient_4)" fill-rule="evenodd" stroke="#0B4870" stroke-width="12" />
      <g id="Clean-logo" transform="translate(548.6477 209.8971)">
        <path d="M14.999 0L663.001 0Q663.369 0 663.737 0.0180669Q664.105 0.0361339 664.471 0.0722243Q664.838 0.108315 665.202 0.162341Q665.566 0.216368 665.927 0.288202Q666.288 0.360035 666.645 0.449501Q667.003 0.538968 667.355 0.645852Q667.707 0.752736 668.054 0.87678Q668.401 1.00082 668.741 1.14173Q669.081 1.28264 669.414 1.44006Q669.747 1.59749 670.071 1.77106Q670.396 1.94463 670.712 2.13393Q671.028 2.32322 671.334 2.52779Q671.64 2.73235 671.936 2.95169Q672.232 3.17103 672.516 3.40462Q672.801 3.6382 673.074 3.88547Q673.346 4.13274 673.607 4.39311Q673.867 4.65346 674.115 4.92629Q674.362 5.19911 674.595 5.48373Q674.829 5.76836 675.048 6.06411Q675.268 6.35985 675.472 6.666Q675.677 6.97215 675.866 7.28797Q676.055 7.60379 676.229 7.92852Q676.402 8.25325 676.56 8.5861Q676.717 8.91895 676.858 9.25913Q676.999 9.59931 677.123 9.94599Q677.247 10.2927 677.354 10.645Q677.461 10.9974 677.55 11.3545Q677.64 11.7117 677.712 12.0728Q677.784 12.434 677.838 12.7982Q677.892 13.1624 677.928 13.5288Q677.964 13.8953 677.982 14.263Q678 14.6308 678 14.999L678 292.104Q678 292.472 677.982 292.84Q677.964 293.208 677.928 293.574Q677.892 293.94 677.838 294.305Q677.784 294.669 677.712 295.03Q677.64 295.391 677.55 295.748Q677.461 296.105 677.354 296.458Q677.247 296.81 677.123 297.157Q676.999 297.504 676.858 297.844Q676.717 298.184 676.56 298.517Q676.402 298.85 676.229 299.174Q676.055 299.499 675.866 299.815Q675.677 300.131 675.472 300.437Q675.268 300.743 675.048 301.039Q674.829 301.334 674.595 301.619Q674.362 301.904 674.115 302.176Q673.867 302.449 673.607 302.71Q673.346 302.97 673.074 303.217Q672.801 303.465 672.516 303.698Q672.232 303.932 671.936 304.151Q671.64 304.37 671.334 304.575Q671.028 304.78 670.712 304.969Q670.396 305.158 670.071 305.332Q669.747 305.505 669.414 305.663Q669.081 305.82 668.741 305.961Q668.401 306.102 668.054 306.226Q667.707 306.35 667.355 306.457Q667.003 306.564 666.645 306.653Q666.288 306.743 665.927 306.815Q665.566 306.886 665.202 306.94Q664.838 306.995 664.471 307.031Q664.105 307.067 663.737 307.085Q663.369 307.103 663.001 307.103L14.999 307.103Q14.6308 307.103 14.263 307.085Q13.8953 307.067 13.5288 307.031Q13.1624 306.995 12.7982 306.94Q12.434 306.886 12.0728 306.815Q11.7117 306.743 11.3545 306.653Q10.9974 306.564 10.645 306.457Q10.2927 306.35 9.94599 306.226Q9.59931 306.102 9.25913 305.961Q8.91895 305.82 8.5861 305.663Q8.25325 305.505 7.92852 305.332Q7.60379 305.158 7.28797 304.969Q6.97215 304.78 6.666 304.575Q6.35985 304.37 6.06411 304.151Q5.76836 303.932 5.48373 303.698Q5.19911 303.465 4.92629 303.217Q4.65346 302.97 4.39311 302.71Q4.13274 302.449 3.88547 302.177Q3.6382 301.904 3.40462 301.619Q3.17103 301.334 2.95169 301.039Q2.73235 300.743 2.52779 300.437Q2.32322 300.131 2.13393 299.815Q1.94463 299.499 1.77106 299.174Q1.59749 298.85 1.44006 298.517Q1.28264 298.184 1.14173 297.844Q1.00082 297.504 0.87678 297.157Q0.752736 296.81 0.645852 296.458Q0.538968 296.105 0.449501 295.748Q0.360035 295.391 0.288202 295.03Q0.216368 294.669 0.162341 294.305Q0.108315 293.94 0.0722243 293.574Q0.0361339 293.208 0.0180669 292.84Q0 292.472 0 292.104L0 14.999Q0 14.6308 0.0180669 14.263Q0.0361339 13.8953 0.0722243 13.5288Q0.108315 13.1624 0.162341 12.7982Q0.216368 12.434 0.288202 12.0728Q0.360035 11.7117 0.449501 11.3545Q0.538968 10.9974 0.645852 10.645Q0.752736 10.2927 0.87678 9.94599Q1.00082 9.59931 1.14173 9.25913Q1.28264 8.91895 1.44006 8.5861Q1.59749 8.25325 1.77106 7.92852Q1.94463 7.60379 2.13393 7.28797Q2.32322 6.97215 2.52779 6.666Q2.73235 6.35985 2.95169 6.06411Q3.17103 5.76836 3.40462 5.48373Q3.6382 5.19911 3.88547 4.92629Q4.13274 4.65346 4.39311 4.39311Q4.65346 4.13274 4.92629 3.88547Q5.19911 3.6382 5.48373 3.40462Q5.76836 3.17103 6.06411 2.95169Q6.35985 2.73235 6.666 2.52779Q6.97215 2.32322 7.28797 2.13393Q7.60379 1.94463 7.92852 1.77106Q8.25325 1.59749 8.5861 1.44006Q8.91895 1.28264 9.25913 1.14173Q9.59931 1.00082 9.94599 0.87678Q10.2927 0.752736 10.645 0.645852Q10.9974 0.538968 11.3545 0.449501Q11.7117 0.360035 12.0728 0.288202Q12.434 0.216368 12.7982 0.162341Q13.1624 0.108315 13.5288 0.0722243Q13.8953 0.0361339 14.263 0.0180669Q14.6308 0 14.999 0L14.999 0Z" id="Rectangle-4" fill="#A9E87D" fill-rule="evenodd" stroke="#227314" stroke-width="23" />
        <path d="M90 54.3546L95 109L110.5 85.5L113.5 54.3546C113.5 54.3546 106.344 51 101.094 51C95.8443 51 90 54.3546 90 54.3546Z" id="New-shape" fill="url(#gradient_5)" fill-rule="evenodd" stroke="#E8BD00" stroke-width="5" />
        <g id="STONKS" transform="translate(49 82)">
          <path d="M581.4 96.1023C581.4 101.602 580.311 106.244 578.132 110.03C575.954 113.816 572.929 116.883 569.058 119.231C565.188 121.579 560.587 123.271 555.257 124.308C549.927 125.344 544.132 125.862 537.871 125.862C535.036 125.862 532.096 125.598 529.051 125.069C526.005 124.54 523.001 123.694 520.04 122.531C517.079 121.368 514.245 119.897 511.537 118.121C508.83 116.344 506.408 114.197 504.272 111.68C502.136 109.163 500.338 106.276 498.878 103.019C497.419 99.7615 496.478 96.0812 496.055 91.9778L523.721 91.4067C523.636 92.5912 523.594 93.7968 523.594 95.0236C523.594 96.2504 523.594 97.5194 523.594 98.8308C523.594 102.511 523.721 106.276 523.974 110.126C526.47 110.422 528.966 110.633 531.462 110.76C533.958 110.887 536.454 110.951 538.949 110.951C541.445 110.951 543.92 110.887 546.374 110.76C548.827 110.633 551.323 110.422 553.861 110.126C554.073 108.687 554.242 107.281 554.369 105.906C554.496 104.531 554.559 103.125 554.559 101.686C554.559 99.3596 554.411 97.0118 554.115 94.6429C553.819 92.2739 553.438 89.905 552.973 87.536C550.012 87.1976 546.606 86.8169 542.757 86.3939C538.907 85.9708 534.962 85.3469 530.923 84.522C526.883 83.6971 522.927 82.5972 519.057 81.2224C515.186 79.8475 511.728 78.0285 508.682 75.7654C505.636 73.5022 503.183 70.7208 501.321 67.4212C499.46 64.1216 498.529 60.124 498.529 55.4284C498.529 52.1711 499.132 49.2099 500.338 46.5449C501.543 43.8798 503.172 41.5003 505.224 39.4063C507.275 37.3123 509.666 35.4828 512.394 33.9176C515.123 32.3524 517.999 31.0621 521.024 30.0469C524.048 29.0316 527.126 28.2702 530.256 27.7625C533.387 27.2549 536.411 27.0011 539.33 27.0011C545.718 27.0011 551.344 27.9952 556.209 29.9834C561.074 31.9716 565.167 34.5627 568.487 37.7565C571.808 40.9504 574.378 44.5567 576.197 48.5754C578.016 52.5941 579.073 56.6129 579.37 60.6316L550.371 63.7409C550.583 62.1334 550.72 60.5153 550.784 58.8866C550.847 57.258 550.879 55.6399 550.879 54.0324C550.879 50.3521 550.625 46.6295 550.117 42.8646C548.679 42.653 547.251 42.505 545.834 42.4204C544.417 42.3358 542.989 42.2935 541.551 42.2935C535.84 42.2935 530.066 42.9915 524.228 44.3874C524.144 45.445 524.101 46.4814 524.101 47.4967C524.101 48.5119 524.101 49.5061 524.101 50.479C524.101 53.4402 524.218 56.3485 524.45 59.2039C524.683 62.0593 525.138 64.9253 525.815 67.8019C529.326 68.2672 533.133 68.7643 537.236 69.2931C541.34 69.8219 545.453 70.5199 549.578 71.387C553.703 72.2542 557.679 73.333 561.507 74.6232C565.336 75.9134 568.72 77.5209 571.66 79.4457C574.6 81.3704 576.958 83.6971 578.735 86.4256C580.512 89.1541 581.4 92.3797 581.4 96.1023L581.4 96.1023ZM464.201 125.989C459.759 119.263 454.915 112.452 449.67 105.557C444.424 98.6615 439.179 91.6181 433.933 84.4267L433.933 123.768L406.268 124.974C406.86 116.682 407.325 108.37 407.664 100.036C408.002 91.7027 408.171 83.2422 408.171 74.6548C408.171 59.5105 407.537 44.4085 406.268 29.3488L433.933 29.3488L433.933 72.8781L475.496 29.3488L493.961 33.854L456.904 73.8933C462.868 81.8885 468.146 88.8684 472.735 94.8331C477.325 100.798 481.207 105.811 484.379 109.872C488.06 114.61 491.253 118.649 493.961 121.991L464.201 125.989ZM395.036 24.7802C393.598 37.4709 392.329 49.9079 391.229 62.091C390.764 67.2942 390.298 72.6878 389.833 78.2717C389.368 83.8557 388.945 89.3761 388.564 94.8332C388.183 100.29 387.866 105.567 387.612 110.665C387.358 115.762 387.231 120.405 387.231 124.593C384.059 124.931 381.066 125.164 378.253 125.291C375.44 125.418 372.595 125.481 369.718 125.481C368.238 125.481 366.693 125.46 365.086 125.418C363.478 125.376 361.808 125.312 360.073 125.228L324.095 51.3038C324.137 54.2227 324.19 57.5012 324.253 61.1392C324.317 64.7772 324.391 68.5739 324.476 72.5291C324.56 76.4844 324.655 80.5137 324.761 84.6171C324.867 88.7204 324.962 92.6757 325.047 96.483C325.216 105.451 325.427 114.652 325.681 124.085C323.101 124.085 320.436 124.128 317.686 124.212C315.317 124.297 312.684 124.413 309.786 124.561C306.888 124.709 304.001 124.931 301.125 125.228C301.421 120.997 301.674 116.207 301.886 110.855C302.097 105.504 302.277 99.8777 302.425 93.9765C302.573 88.0753 302.69 82.0789 302.774 75.9874C302.859 69.8958 302.901 63.9946 302.901 58.2838C302.901 52.3614 302.848 46.8409 302.743 41.7223C302.637 36.6037 302.521 32.2466 302.394 28.6508C305.82 28.9046 309.099 29.0844 312.229 29.1902C315.359 29.296 318.49 29.3488 321.62 29.3488C324.793 29.3488 327.976 29.2959 331.17 29.1902C334.364 29.0844 337.716 28.9046 341.227 28.6508C343.131 34.0233 345.246 39.1842 347.573 44.1336C349.899 49.083 352.3 53.9795 354.775 58.8231C357.249 63.6668 359.735 68.5316 362.231 73.4175C364.726 78.3034 367.138 83.348 369.464 88.5512C369.464 85.7593 369.496 82.7135 369.559 79.4139C369.623 76.1143 369.697 72.7089 369.782 69.1978C369.866 65.6867 369.951 62.1544 370.035 58.601C370.12 55.0476 370.226 51.6211 370.353 48.3215C370.564 40.6225 370.839 32.7753 371.178 24.7802C373.504 24.9917 375.566 25.1503 377.364 25.2561C379.162 25.3618 380.949 25.4147 382.726 25.4147C384.503 25.4147 386.343 25.3618 388.247 25.2561C390.15 25.1503 392.413 24.9917 395.036 24.7802L395.036 24.7802ZM191.921 45.2758C188.79 45.2758 185.628 45.2546 182.434 45.2123C179.24 45.17 175.994 45.1489 172.694 45.1489L167.11 45.1489C167.11 58.1781 167.195 71.2284 167.364 84.2999C167.533 97.3714 167.977 110.443 168.697 123.514L139.825 123.514C140.248 113.954 140.671 104.478 141.094 95.087C141.263 91.1106 141.433 86.9438 141.602 82.5866C141.771 78.2295 141.94 73.8934 142.109 69.5786C142.279 65.2637 142.416 61.0652 142.522 56.983C142.628 52.9008 142.723 49.1042 142.807 45.593C137.943 45.72 133.152 45.868 128.435 46.0372C123.718 46.2064 118.97 46.3968 114.19 46.6083L114.19 27.6356C120.873 27.8894 127.504 28.0586 134.082 28.1433C140.661 28.2279 147.291 28.2702 153.975 28.2702C160.405 28.2702 166.772 28.2279 173.075 28.1433C179.378 28.0586 185.66 27.8894 191.921 27.6356L191.921 45.2758Z" id="TONKS" fill="#227314" fill-rule="evenodd" stroke="none" />
          <path d="M108.362 87.7368C108.362 94.7192 106.979 100.614 104.213 105.421C101.447 110.228 97.6062 114.122 92.6917 117.103C87.7771 120.084 81.936 122.233 75.1685 123.549C68.4009 124.865 61.0425 125.522 53.0933 125.522C49.4946 125.522 45.7617 125.187 41.8945 124.515C38.0273 123.844 34.2139 122.77 30.4541 121.293C26.6943 119.816 23.0957 117.949 19.6582 115.693C16.2207 113.438 13.1458 110.712 10.4333 107.516C7.72095 104.32 5.43823 100.654 3.58521 96.5186C1.73218 92.3828 0.537109 87.71 0 82.5L35.127 81.7749C35.0195 83.2788 34.9658 84.8096 34.9658 86.3672C34.9658 87.9248 34.9658 89.5361 34.9658 91.2012C34.9658 95.874 35.127 100.654 35.4492 105.542C38.6182 105.918 41.7871 106.187 44.9561 106.348C48.125 106.509 51.2939 106.589 54.4629 106.589C57.6318 106.589 60.7739 106.509 63.8892 106.348C67.0044 106.187 70.1733 105.918 73.396 105.542C73.6646 103.716 73.8794 101.93 74.0405 100.184C74.2017 98.4387 74.2822 96.6528 74.2822 94.8267C74.2822 91.8726 74.0942 88.8916 73.7183 85.8838C73.3423 82.876 72.8589 79.8682 72.2681 76.8604C68.5083 76.4307 64.1846 75.9473 59.2969 75.4102C54.4092 74.873 49.4006 74.0808 44.2712 73.0334C39.1418 71.9861 34.1199 70.5896 29.2053 68.844C24.2908 67.0984 19.8999 64.7888 16.0327 61.9153C12.1655 59.0417 9.05029 55.5103 6.68701 51.3208C4.32373 47.1314 3.14209 42.0557 3.14209 36.0938C3.14209 31.958 3.90747 28.1982 5.43823 24.8145C6.96899 21.4307 9.03687 18.4094 11.6418 15.7507C14.2468 13.092 17.2815 10.769 20.7458 8.78174C24.2102 6.79443 27.8626 5.15625 31.7029 3.86719C35.5432 2.57813 39.4507 1.61133 43.4253 0.966797C47.3999 0.322266 51.2402 0 54.9463 0C63.0566 0 70.2002 1.26221 76.377 3.78662C82.5537 6.31104 87.7502 9.60083 91.9666 13.656C96.1829 17.7112 99.4458 22.29 101.755 27.3926C104.065 32.4951 105.408 37.5977 105.784 42.7002L68.9648 46.648C69.2334 44.6069 69.408 42.5525 69.4885 40.4846C69.5691 38.4167 69.6094 36.3623 69.6094 34.3213C69.6094 29.6484 69.2871 24.9219 68.6426 20.1416C66.8164 19.8731 65.0037 19.6851 63.2043 19.5776C61.405 19.4702 59.5923 19.4165 57.7661 19.4165C50.5151 19.4165 43.1836 20.3027 35.7715 22.0752C35.6641 23.418 35.6104 24.7339 35.6104 26.023C35.6104 27.312 35.6104 28.5742 35.6104 29.8096C35.6104 33.5693 35.7581 37.262 36.0535 40.8875C36.3489 44.5129 36.9263 48.1519 37.7856 51.8042C42.2437 52.395 47.0776 53.0261 52.2876 53.6975C57.4976 54.3689 62.721 55.2551 67.9578 56.3562C73.1946 57.4573 78.2434 58.8269 83.1043 60.4651C87.9651 62.1033 92.262 64.1443 95.9949 66.5881C99.7278 69.032 102.722 71.9861 104.978 75.4504C107.234 78.9148 108.362 83.0103 108.362 87.7368L108.362 87.7368Z" id="S" fill="url(#gradient_6)" fill-rule="evenodd" stroke="#E8BD00" stroke-width="5" />
        </g>
        <path d="M112.004 217.794L110.508 102.956L92.9268 102.973L88.5072 217.384C88.5072 217.384 95.5749 217.713 100.824 217.805C106.073 217.897 112.004 217.794 112.004 217.794Z" id="New-shape-2" fill="url(#gradient_7)" fill-rule="evenodd" stroke="#E8BD00" stroke-width="5" />
        <path d="M434.499 27L646.901 27Q647.036 27 647.171 27.0066Q647.306 27.0132 647.44 27.0265Q647.574 27.0397 647.708 27.0595Q647.841 27.0793 647.974 27.1057Q648.106 27.132 648.237 27.1648Q648.368 27.1976 648.497 27.2368Q648.626 27.276 648.753 27.3214Q648.881 27.3669 649.005 27.4186Q649.13 27.4702 649.252 27.528Q649.374 27.5857 649.493 27.6493Q649.612 27.7129 649.728 27.7823Q649.844 27.8517 649.956 27.9267Q650.068 28.0017 650.177 28.0822Q650.285 28.1626 650.389 28.2482Q650.494 28.3339 650.594 28.4245Q650.694 28.5152 650.789 28.6106Q650.885 28.7061 650.976 28.8061Q651.066 28.9061 651.152 29.0105Q651.237 29.1148 651.318 29.2232Q651.398 29.3317 651.473 29.4439Q651.548 29.5562 651.618 29.6719Q651.687 29.7877 651.751 29.9068Q651.814 30.0258 651.872 30.1479Q651.93 30.2699 651.981 30.3946Q652.033 30.5193 652.079 30.6464Q652.124 30.7735 652.163 30.9027Q652.202 31.0319 652.235 31.1628Q652.268 31.2938 652.294 31.4262Q652.321 31.5586 652.341 31.6921Q652.36 31.8257 652.374 31.96Q652.387 32.0943 652.393 32.2292Q652.4 32.364 652.4 32.499L652.4 32.501Q652.4 32.636 652.393 32.7708Q652.387 32.9057 652.374 33.04Q652.36 33.1743 652.341 33.3079Q652.321 33.4414 652.294 33.5738Q652.268 33.7062 652.235 33.8371Q652.202 33.9681 652.163 34.0973Q652.124 34.2265 652.078 34.3536Q652.033 34.4807 651.981 34.6054Q651.93 34.7301 651.872 34.8521Q651.814 34.9741 651.751 35.0932Q651.687 35.2123 651.618 35.328Q651.548 35.4438 651.473 35.5561Q651.398 35.6683 651.318 35.7767Q651.237 35.8852 651.152 35.9895Q651.066 36.0939 650.975 36.1939Q650.885 36.2939 650.789 36.3894Q650.694 36.4848 650.594 36.5755Q650.494 36.6661 650.39 36.7518Q650.285 36.8374 650.177 36.9178Q650.068 36.9982 649.956 37.0732Q649.844 37.1482 649.728 37.2176Q649.612 37.287 649.493 37.3507Q649.374 37.4143 649.252 37.472Q649.13 37.5298 649.005 37.5814Q648.881 37.6331 648.753 37.6785Q648.626 37.724 648.497 37.7632Q648.368 37.8024 648.237 37.8352Q648.106 37.868 647.974 37.8943Q647.841 37.9207 647.708 37.9405Q647.574 37.9603 647.44 37.9735Q647.306 37.9868 647.171 37.9934Q647.036 38 646.901 38L434.499 38Q434.364 38 434.229 37.9934Q434.094 37.9868 433.96 37.9735Q433.826 37.9603 433.692 37.9405Q433.559 37.9207 433.426 37.8943Q433.294 37.868 433.163 37.8352Q433.032 37.8024 432.903 37.7632Q432.773 37.724 432.646 37.6785Q432.519 37.6331 432.395 37.5814Q432.27 37.5298 432.148 37.472Q432.026 37.4143 431.907 37.3507Q431.788 37.287 431.672 37.2176Q431.556 37.1482 431.444 37.0732Q431.332 36.9982 431.223 36.9178Q431.115 36.8374 431.01 36.7518Q430.906 36.6661 430.806 36.5755Q430.706 36.4848 430.611 36.3894Q430.515 36.2939 430.424 36.1939Q430.334 36.0939 430.248 35.9895Q430.163 35.8852 430.082 35.7767Q430.002 35.6683 429.927 35.5561Q429.852 35.4438 429.782 35.328Q429.713 35.2123 429.649 35.0932Q429.586 34.9741 429.528 34.8521Q429.47 34.7301 429.419 34.6054Q429.367 34.4807 429.321 34.3536Q429.276 34.2265 429.237 34.0973Q429.198 33.9681 429.165 33.8371Q429.132 33.7062 429.106 33.5738Q429.079 33.4414 429.059 33.3079Q429.04 33.1743 429.026 33.04Q429.013 32.9057 429.007 32.7708Q429 32.636 429 32.501L429 32.499Q429 32.364 429.007 32.2292Q429.013 32.0943 429.026 31.96Q429.04 31.8257 429.059 31.6921Q429.079 31.5586 429.106 31.4262Q429.132 31.2938 429.165 31.1629Q429.198 31.0319 429.237 30.9027Q429.276 30.7735 429.321 30.6464Q429.367 30.5193 429.419 30.3946Q429.47 30.2699 429.528 30.1479Q429.586 30.0258 429.649 29.9068Q429.713 29.7877 429.782 29.6719Q429.852 29.5562 429.927 29.4439Q430.002 29.3317 430.082 29.2232Q430.163 29.1148 430.248 29.0105Q430.334 28.9061 430.424 28.8061Q430.515 28.7061 430.611 28.6106Q430.706 28.5152 430.806 28.4245Q430.906 28.3339 431.01 28.2482Q431.115 28.1626 431.223 28.0822Q431.332 28.0017 431.444 27.9267Q431.556 27.8517 431.672 27.7823Q431.788 27.7129 431.907 27.6493Q432.026 27.5857 432.148 27.528Q432.27 27.4702 432.395 27.4186Q432.519 27.3669 432.646 27.3214Q432.773 27.276 432.903 27.2368Q433.032 27.1976 433.163 27.1648Q433.294 27.132 433.426 27.1057Q433.559 27.0793 433.692 27.0595Q433.826 27.0397 433.96 27.0265Q434.094 27.0132 434.229 27.0066Q434.364 27 434.499 27Z" id="Rectangle-5" fill="#227314" fill-rule="evenodd" stroke="none" />
        <path d="M28.499 268L240.901 268Q241.036 268 241.171 268.007Q241.306 268.013 241.44 268.026Q241.574 268.04 241.708 268.06Q241.841 268.079 241.974 268.106Q242.106 268.132 242.237 268.165Q242.368 268.198 242.497 268.237Q242.626 268.276 242.754 268.321Q242.881 268.367 243.005 268.419Q243.13 268.47 243.252 268.528Q243.374 268.586 243.493 268.649Q243.612 268.713 243.728 268.782Q243.844 268.852 243.956 268.927Q244.068 269.002 244.177 269.082Q244.285 269.163 244.39 269.248Q244.494 269.334 244.594 269.424Q244.694 269.515 244.789 269.611Q244.885 269.706 244.975 269.806Q245.066 269.906 245.152 270.01Q245.237 270.115 245.318 270.223Q245.398 270.332 245.473 270.444Q245.548 270.556 245.618 270.672Q245.687 270.788 245.751 270.907Q245.814 271.026 245.872 271.148Q245.93 271.27 245.981 271.395Q246.033 271.519 246.079 271.646Q246.124 271.774 246.163 271.903Q246.202 272.032 246.235 272.163Q246.268 272.294 246.294 272.426Q246.321 272.559 246.34 272.692Q246.36 272.826 246.374 272.96Q246.387 273.094 246.393 273.229Q246.4 273.364 246.4 273.499L246.4 273.501Q246.4 273.636 246.393 273.771Q246.387 273.906 246.374 274.04Q246.36 274.174 246.34 274.308Q246.321 274.441 246.294 274.574Q246.268 274.706 246.235 274.837Q246.202 274.968 246.163 275.097Q246.124 275.226 246.079 275.354Q246.033 275.481 245.981 275.605Q245.93 275.73 245.872 275.852Q245.814 275.974 245.751 276.093Q245.687 276.212 245.618 276.328Q245.548 276.444 245.473 276.556Q245.398 276.668 245.318 276.777Q245.237 276.885 245.152 276.99Q245.066 277.094 244.975 277.194Q244.885 277.294 244.789 277.389Q244.694 277.485 244.594 277.576Q244.494 277.666 244.39 277.752Q244.285 277.837 244.177 277.918Q244.068 277.998 243.956 278.073Q243.844 278.148 243.728 278.218Q243.612 278.287 243.493 278.351Q243.374 278.414 243.252 278.472Q243.13 278.53 243.005 278.581Q242.881 278.633 242.754 278.678Q242.626 278.724 242.497 278.763Q242.368 278.802 242.237 278.835Q242.106 278.868 241.974 278.894Q241.841 278.921 241.708 278.94Q241.574 278.96 241.44 278.974Q241.306 278.987 241.171 278.993Q241.036 279 240.901 279L28.499 279Q28.364 279 28.2292 278.993Q28.0943 278.987 27.96 278.974Q27.8257 278.96 27.6921 278.94Q27.5586 278.921 27.4262 278.894Q27.2938 278.868 27.1629 278.835Q27.0319 278.802 26.9027 278.763Q26.7735 278.724 26.6464 278.678Q26.5193 278.633 26.3946 278.581Q26.2699 278.53 26.1479 278.472Q26.0258 278.414 25.9068 278.351Q25.7877 278.287 25.6719 278.218Q25.5562 278.148 25.4439 278.073Q25.3317 277.998 25.2232 277.918Q25.1148 277.837 25.0105 277.752Q24.9061 277.666 24.8061 277.575Q24.7061 277.485 24.6106 277.389Q24.5152 277.294 24.4245 277.194Q24.3338 277.094 24.2482 276.989Q24.1626 276.885 24.0822 276.777Q24.0017 276.668 23.9267 276.556Q23.8517 276.444 23.7823 276.328Q23.7129 276.212 23.6493 276.093Q23.5857 275.974 23.528 275.852Q23.4702 275.73 23.4186 275.605Q23.3669 275.481 23.3214 275.354Q23.276 275.226 23.2368 275.097Q23.1976 274.968 23.1648 274.837Q23.132 274.706 23.1057 274.574Q23.0793 274.441 23.0595 274.308Q23.0397 274.174 23.0265 274.04Q23.0132 273.906 23.0066 273.771Q23 273.636 23 273.501L23 273.499Q23 273.364 23.0066 273.229Q23.0132 273.094 23.0265 272.96Q23.0397 272.826 23.0595 272.692Q23.0793 272.559 23.1057 272.426Q23.132 272.294 23.1648 272.163Q23.1976 272.032 23.2368 271.903Q23.276 271.774 23.3214 271.646Q23.3669 271.519 23.4186 271.395Q23.4702 271.27 23.528 271.148Q23.5857 271.026 23.6493 270.907Q23.7129 270.788 23.7823 270.672Q23.8517 270.556 23.9267 270.444Q24.0017 270.332 24.0822 270.223Q24.1626 270.115 24.2482 270.01Q24.3339 269.906 24.4245 269.806Q24.5152 269.706 24.6106 269.611Q24.7061 269.515 24.8061 269.424Q24.9061 269.334 25.0105 269.248Q25.1148 269.163 25.2232 269.082Q25.3317 269.002 25.4439 268.927Q25.5562 268.852 25.6719 268.782Q25.7877 268.713 25.9068 268.649Q26.0258 268.586 26.1479 268.528Q26.2699 268.47 26.3946 268.419Q26.5193 268.367 26.6464 268.321Q26.7735 268.276 26.9027 268.237Q27.0319 268.198 27.1628 268.165Q27.2938 268.132 27.4262 268.106Q27.5586 268.079 27.6921 268.06Q27.8257 268.04 27.96 268.026Q28.0943 268.013 28.2292 268.007Q28.364 268 28.499 268Z" id="Rectangle-6" fill="#227314" fill-rule="evenodd" stroke="none" />
        <g id="Group-2" transform="translate(246.3999 108.9928)">
          <path d="M62.7917 81.0606C63.0472 78.5055 63.2814 75.6949 63.4943 72.6288C63.7072 69.5626 63.8776 66.4326 64.0054 63.2388C64.1331 60.0449 64.2289 56.9043 64.2928 53.8168C64.3567 50.7294 64.3886 47.9082 64.3886 45.3531C64.3886 40.4558 64.2609 35.3562 64.0054 30.0544C63.7498 24.7526 63.3453 19.653 62.7917 14.7558C62.1529 14.7132 61.3864 14.6706 60.4921 14.628C59.5978 14.5854 58.6716 14.5535 57.7134 14.5322C56.7552 14.5109 55.829 14.5003 54.9347 14.5002C54.0405 14.5002 53.2739 14.5002 52.6352 14.5002C50.7188 14.5002 48.6854 14.5428 46.5349 14.628C44.3843 14.7132 42.2018 14.8516 39.9874 15.0432C37.773 15.2348 35.5905 15.4691 33.44 15.7459C31.2894 16.0227 29.256 16.3527 27.3397 16.736C27.3397 17.6728 27.329 18.8759 27.3077 20.345C27.2864 21.8142 27.2758 23.326 27.2758 24.8803C27.2758 26.4347 27.2651 27.9252 27.2439 29.3518C27.2226 30.7784 27.2119 31.9388 27.2119 32.8331C27.2119 40.7965 27.4781 48.8876 28.0104 57.1065C28.5427 65.3254 29.3412 73.3101 30.4058 81.0606C31.4704 81.2309 32.6734 81.38 34.0149 81.5077C35.3563 81.6355 36.7297 81.7313 38.135 81.7952C39.5403 81.8591 40.9243 81.9123 42.287 81.9549C43.6497 81.9975 44.8634 82.0188 45.928 82.0188C47.1204 82.0188 48.4405 81.9975 49.8884 81.9549C51.3363 81.9123 52.8055 81.8591 54.296 81.7952C55.7864 81.7313 57.2663 81.6355 58.7355 81.5077C60.2046 81.38 61.5567 81.2309 62.7917 81.0606L62.7917 81.0606ZM93.9638 49.9522C93.9638 56.9361 92.7927 63.4304 90.4505 69.4348C88.1084 75.4393 84.7867 80.6453 80.4856 85.0529C76.1846 89.4604 71.0211 92.9311 64.9954 95.4649C58.9696 97.9987 52.2731 99.2656 44.9059 99.2656C41.712 99.2656 38.3904 98.893 34.941 98.1478C31.4916 97.4025 28.1061 96.1889 24.7845 94.5068C21.4628 92.8246 18.3009 90.6422 15.2987 87.9593C12.2964 85.2765 9.66679 81.9974 7.40979 78.1222C5.15278 74.2469 3.35357 69.7329 2.01214 64.5801C0.670714 59.4274 0 53.5506 0 46.95C0 40.477 0.755884 34.8132 2.26765 29.9585C3.77942 25.1039 5.77027 20.9412 8.2402 17.4705C10.7101 13.9998 13.5527 11.136 16.7678 8.87897C19.983 6.62197 23.294 4.8334 26.7008 3.51326C30.1076 2.19313 33.4718 1.27755 36.7934 0.76653C40.1151 0.25551 43.1599 0 45.9279 0C50.229 0 54.3917 0.393911 58.416 1.18173C62.4403 1.96956 66.2197 3.20452 69.7542 4.88663C73.2888 6.56874 76.5252 8.72992 79.4636 11.3702C82.402 14.0105 84.9358 17.183 87.065 20.8879C89.1943 24.5928 90.8657 28.8513 92.0794 33.6634C93.2931 38.4755 93.9212 43.9051 93.9638 49.9522L93.9638 49.9522Z" id="O" fill="#227314" stroke="none" />
        </g>
      </g>
    </g>
  </g>
</svg>