<?xml version="1.0" encoding="utf-8"?>
<svg width="660.4575px" height="352.91943px" viewBox="0 0 660.4575 352.91943" version="1.1" xmlns:xlink="http://www.w3.org/1999/xlink" xmlns="http://www.w3.org/2000/svg">
  <defs>
    <linearGradient gradientUnits="userSpaceOnUse" x1="0" y1="0" x2="648.4575" y2="340.91937" id="gradient_1">
      <stop offset="0%" stop-color="#FFFFFF" />
      <stop offset="100%" stop-color="#CCE9FF" />
    </linearGradient>
  </defs>
  <g id="New-shape-4" transform="translate(6 6)">
    <path d="M0 315.233C0 315.233 89.8537 344.754 126.258 328.775C196.325 298.02 285.984 331.163 311.631 337.069C317.196 338.351 383.599 356.481 361.498 301.159C361.498 301.159 216.994 263.758 216.994 263.758C216.994 263.758 301.472 284.683 361.498 301.159C421.524 317.634 456.393 307.528 467.493 301.159C511.153 276.109 463.993 263.756 463.993 263.756C463.993 263.756 386.124 248.628 349.998 230.655C313.871 212.683 303.997 206.156 303.997 206.156C303.997 206.156 354.716 240.198 407.999 249.656C461.28 259.114 548.881 276.993 551.901 244.155C553.341 228.483 517.493 206.156 517.493 206.156L394.992 139.655C394.992 139.655 608.331 274.731 646.994 236.155C661.999 221.186 557.827 144.422 508.491 116.155C459.155 87.8881 322.054 -14.5883 174.489 1.75463C26.9246 18.0976 34.4639 120.085 63.4895 168.155C92.5152 216.225 82.7419 237.305 53.989 263.758C25.2361 290.21 0.000119791 315.233 0.000119791 315.233C0.000119791 315.233 0 315.233 0 315.233Z" id="New-shape-2" fill="url(#gradient_1)" fill-rule="evenodd" stroke="#0B4870" stroke-width="12" />
  </g>
</svg>