<?xml version="1.0" encoding="utf-8"?>
<svg width="660.45996px" height="352.91943px" viewBox="0 0 660.45996 352.91943" version="1.1" xmlns:xlink="http://www.w3.org/1999/xlink" xmlns="http://www.w3.org/2000/svg">
  <defs>
    <linearGradient gradientUnits="userSpaceOnUse" x1="648.45996" y1="340.91937" x2="0" y2="-2.9804118E-05" id="gradient_1">
      <stop offset="0%" stop-color="#FFFFFF" />
      <stop offset="100%" stop-color="#CCE9FF" />
    </linearGradient>
  </defs>
  <g id="New-shape-3" transform="translate(6 6)">
    <path d="M648.46 315.233C648.46 315.233 558.606 344.754 522.201 328.775C452.135 298.02 362.474 331.163 336.827 337.069C331.262 338.351 264.86 356.481 286.961 301.159C286.961 301.159 431.465 263.758 431.465 263.758C431.465 263.758 346.987 284.683 286.961 301.159C226.934 317.634 192.065 307.528 180.965 301.159C137.305 276.109 184.465 263.756 184.465 263.756C184.465 263.756 262.335 248.628 298.461 230.655C334.587 212.683 344.462 206.156 344.462 206.156C344.462 206.156 293.742 240.198 240.46 249.656C187.178 259.114 99.5772 276.993 96.5568 244.155C95.1163 228.483 130.965 206.156 130.965 206.156L253.466 139.655C253.466 139.655 40.1269 274.731 1.4635 236.155C-13.5414 221.186 90.6307 144.422 139.967 116.155C189.303 87.8881 326.404 -14.5883 473.97 1.75463C621.535 18.0976 613.996 120.085 584.97 168.155C555.944 216.225 565.718 237.305 594.471 263.758C623.224 290.21 648.46 315.233 648.46 315.233C648.46 315.233 648.46 315.233 648.46 315.233Z" id="New-shape-2" fill="url(#gradient_1)" fill-rule="evenodd" stroke="#0B4870" stroke-width="12" />
  </g>
</svg>