<?xml version="1.0" encoding="utf-8"?>
<svg width="182.79993px" height="255px" viewBox="0 0 182.79993 255" version="1.1" xmlns:xlink="http://www.w3.org/1999/xlink" xmlns="http://www.w3.org/2000/svg">
  <g id="ceo" transform="translate(0.5 0.5)">
    <g id="neck" transform="translate(65 114.5)">
      <path d="M49.5 0L49.5 13.1538L25 18L25 6.23077L49.5 0Z" id="New-shape-2" fill="#E6B8A8" fill-rule="evenodd" stroke="#E6B8A8" stroke-width="1" />
      <path d="M0 0L0 13.1538L24.5 18L24.5 6.23077L0 0Z" id="New-shape-3" fill="#ECC0AC" fill-rule="evenodd" stroke="#ECC0AC" stroke-width="1" />
    </g>
    <g id="Head" transform="translate(46.799927 0)">
      <g id="face_half-2" transform="translate(0.040771484 0)">
        <path d="M42.5 0L13 8L0 33L0 83L18 116L42.5 125.5L42.5 0Z" id="face_half" fill="#E6B8A8" fill-rule="evenodd" stroke="#E6B8A8" stroke-width="1" />
      </g>
      <g id="face_half" transform="matrix(-1 0 0 1 86 0)">
        <path d="M42.5 0L13 8L0 33L0 83L18 116L42.5 125.5L42.5 0Z" id="New-shape-17" fill="#ECC0AC" fill-rule="evenodd" stroke="#ECC0AC" stroke-width="1" />
      </g>
      <path d="M86.0001 54.5C85.9087 53.135 75.0345 31.0001 75.0345 31.0001L73.0408 8L86.0001 33.0001C86.0001 33.0001 86.0916 55.865 86.0001 54.5Z" id="New-shape-19" fill="#A5A5A5" fill-rule="evenodd" stroke="#A5A5A5" stroke-width="1" />
      <path d="M59.0408 57L65.0408 57L65.0408 74L59.0408 74L59.0408 57Z" id="eye" fill="#000000" fill-rule="evenodd" stroke="none" />
      <path d="M75.0408 49L54.0408 49L55.5408 54L75.0408 51.5L75.0408 49Z" id="New-shape-17" fill="#A5A5A5" fill-rule="evenodd" stroke="#A5A5A5" stroke-width="1" />
      <path d="M11.0408 49L32.0408 49L30.5408 54L11.0408 51.5L11.0408 49Z" id="New-shape-17" fill="#979797" fill-rule="evenodd" stroke="#979797" stroke-width="1" />
      <path d="M0.0407715 54.5C0.132507 53.135 11.0408 31.0001 11.0408 31.0001L13.0408 8L0.0407716 33.0001C0.0407716 33.0001 -0.0509645 55.865 0.0407715 54.5Z" id="New-shape-18" fill="#979797" fill-rule="evenodd" stroke="#979797" stroke-width="1" />
      <path d="M21.0408 57L27.0408 57L27.0408 74L21.0408 74L21.0408 57Z" id="eye-2" fill="#000000" fill-rule="evenodd" stroke="none" />
    </g>
    <g id="torso" transform="translate(0 125.5)">
      <path d="M64.5 0L70.6397 40.0689L76.9999 83L89.9999 83L89.9999 7L64.5 0Z" id="New-shape-2" fill="#F1F1F1" fill-rule="evenodd" stroke="#F1F1F1" stroke-width="1" />
      <path d="M90 7L70.5 36.5L64.5 0L90 7Z" id="New-shape-3" fill="#C9C9C9" fill-rule="evenodd" stroke="#C9C9C9" stroke-width="1" />
      <path d="M76 29C76 29 90 29 90 29L90 41L83 41C83 41 76 29 76 29Z" id="New-shape-5" fill="#57C253" fill-rule="evenodd" stroke="#57C253" stroke-width="1" />
      <path d="M116.578 0L110.302 40.0689L103.8 83L90.5112 83L90.5112 7L116.578 0Z" id="New-shape-2" fill="#D8D8D8" fill-rule="evenodd" stroke="#D8D8D8" stroke-width="1" />
      <path d="M90.5 7L111.5 37.5L116.578 0L90.5 7Z" id="New-shape-3" fill="#A1A1A1" fill-rule="evenodd" stroke="#A1A1A1" stroke-width="1" />
      <path d="M90 82.9738L90 53.5861L90 41L97.1555 41C97.1555 41 103.997 82.9147 104 82.9738C104.003 83.0328 90 82.9738 90 82.9738Z" id="New-shape-5" fill="#57C253" fill-rule="evenodd" stroke="#57C253" stroke-width="1" />
      <path d="M104.51 83L117.5 0L175.156 25.71L181.8 83L104.514 83L181.8 83L104.51 83Z" id="New-shape" fill="#3D3D3D" fill-rule="evenodd" stroke="#3D3D3D" stroke-width="1" />
      <path d="M104.311 29C104.311 29 90.5 29 90.5 29L90.5 41L97.1555 41C97.1555 41 104.311 29 104.311 29Z" id="New-shape-4" fill="#489E44" fill-rule="evenodd" stroke="#489E44" stroke-width="1" />
      <path d="M90 83.5L90 41.5L83 41.5L75 83L90 82.9999" id="New-shape-6" fill="#489E44" fill-rule="evenodd" stroke="#489E44" stroke-width="1" />
      <path d="M76.5939 83L63.5 0L6.58458 25.71L0 83L77 83L0 83L76.5939 83Z" id="New-shape-6" fill="#3D3D3D" fill-rule="evenodd" stroke="#3D3D3D" stroke-width="1" />
    </g>
  </g>
</svg>