<?xml version="1.0" encoding="utf-8"?>
<svg width="157.69995px" height="198.69998px" viewBox="0 0 157.69995 198.69998" version="1.1" xmlns:xlink="http://www.w3.org/1999/xlink" xmlns="http://www.w3.org/2000/svg">
  <g id="female_worker3" transform="translate(0.5 0.5000305)">
    <path d="M121.7 110.1L121.7 123.1L124.7 133.1L121.7 144.1L124.7 151.6L121.7 156.1L121.7 163.1L124.7 171.1L121.7 184.1L137.2 184.1L130.7 173.6L130.7 173.6L130.7 168.1L133.7 163.1L133.7 156.1L130.7 149.1L133.7 144.1L133.7 139.6L130.7 133.1L133.7 123.1L130.7 110.1L121.7 110.1Z" id="New-shape-8" fill="#543131" fill-rule="evenodd" stroke="#543131" stroke-width="1" />
    <g id="pr">
      <g id="pr" transform="translate(0 -3.0517578E-05)">
        <path d="M64.1001 156.7L64.1001 197.7L94.1001 197.7L94.1001 156.7L64.1001 156.7Z" id="New-shape-19" fill="#FFDF4F" fill-rule="evenodd" stroke="#FFDF4F" stroke-width="1" />
        <g id="PR" transform="translate(18.700195 0)">
          <path d="M59.3999 27.1L59.3999 0L23.8999 11.1L0 34.6L0 74.1L5.5 98.1L23.8999 112.1L14.7999 54.6L59.3999 27.1Z" id="New-shape-7" fill="#482B2B" fill-rule="evenodd" stroke="#482B2B" stroke-width="1" />
          <g id="pr" transform="translate(14.077637 28.13272)">
            <path d="M23.2222 122.567L34.2222 132.567L45.0222 136.067L45.0222 111.567L29.2222 104.567L29.2222 119.567L23.2222 122.567Z" id="New-shape-3" fill="#ECC0AC" fill-rule="evenodd" stroke="#ECC0AC" stroke-width="1" />
            <g id="face">
              <g id="Head">
                <path d="M67.822 122.57L56.822 132.57L46.022 136.07L46.022 119.57L46.022 119.57L46.022 111.568L61.822 104.57L61.822 119.57L67.822 122.57Z" id="New-shape-19" fill="#E9BBA6" fill-rule="evenodd" stroke="#E9BBA6" stroke-width="1" />
                <path d="M45 0L0 26.7829L10.8769 95.5872L45 111.567L45 55.6699L45 0Z" id="New-shape-17-Copy" fill="#E9BBA6" fill-rule="evenodd" stroke="#E9BBA6" stroke-width="1" />
                <g id="face_half" transform="matrix(-1 0 0 1 90.99072 0)">
                  <path d="M45 0L0 26.7829L10.8769 95.5872L45 111.567L45 0Z" id="New-shape-17-Copy" fill="#ECC0AC" fill-rule="evenodd" stroke="#ECC0AC" stroke-width="1" />
                </g>
                <path d="M32.5449 57.2614L35.5449 57.2614L35.5449 72.9617L32.5449 72.9617L32.5449 57.2614Z" id="eye-3" fill="#000000" fill-rule="evenodd" stroke="none" />
                <path d="M56.2437 57.2615L59.2437 57.2615L59.2437 72.9618L56.2437 72.9618L56.2437 57.2615Z" id="eye" fill="#000000" fill-rule="evenodd" stroke="none" />
                <path d="M19.9348 50.4567L26.7067 47.498L40.7659 47.899L38.3127 50.0611L36.0312 50.3413L19.9348 50.4567Z" id="New-shape-17" fill="#000000" fill-rule="evenodd" stroke="#000000" stroke-width="1" />
                <path d="M25.7207 116.67L28.7207 116.67L28.7207 118.67L28.4986 118.67L25.7207 118.67L25.7207 116.67Z" id="Rectangle-8" fill="#D3D3D3" fill-opacity="0" fill-rule="evenodd" stroke="none" />
                <path d="M23.1548 119.734L27.6294 117.503L28.5219 119.293L28.1904 119.458L24.0472 121.524L23.1548 119.734Z" id="Rectangle-9" fill="#D3D3D3" fill-opacity="0" fill-rule="evenodd" stroke="none" />
              </g>
            </g>
            <path d="M68.8223 122.567L118.722 148.567L123.922 169.567L57.8223 169.567L57.8223 132.067L68.8223 122.567Z" id="New-shape-5" fill="#4B4B4B" fill-rule="evenodd" stroke="#4B4B4B" stroke-width="1" />
          </g>
        </g>
        <path d="M103.983 78.5895L97.2107 75.6306L83.1499 76.0314L85.6034 78.1936L87.8852 78.4738L103.983 78.5895Z" id="New-shape-17" fill="#000000" fill-rule="evenodd" stroke="#000000" stroke-width="1" />
        <path d="M55.1001 150.7L5.2002 176.7L0 197.7L66.1 197.7L66.1 160.2L55.1001 150.7Z" id="New-shape-5" fill="#4B4B4B" fill-rule="evenodd" stroke="#4B4B4B" stroke-width="1" />
        <path d="M55.1001 150.7L57.6001 171.2L66.1001 185.2L66.1001 160.2L55.1001 150.7Z" id="New-shape-18" fill="#05030E" fill-rule="evenodd" stroke="#05030E" stroke-width="1" />
        <path d="M101.6 150.7L99.1001 171.2L90.6001 185.2L90.6001 160.2L101.6 150.7Z" id="New-shape-6" fill="#05030E" fill-rule="evenodd" stroke="#05030E" stroke-width="1" />
        <path d="M77 167.1L79.1001 167.1L79.1001 169.2L77 169.2L77 167.1Z" id="Rectangle" fill="#000000" fill-rule="evenodd" stroke="none" />
        <path d="M77 171.2L79.1001 171.2L79.1001 173.3L77 173.3L77 171.2Z" id="Rectangle-2" fill="#000000" fill-rule="evenodd" stroke="none" />
        <path d="M77 175.2L79.1001 175.2L79.1001 177.3L77 177.3L77 175.2Z" id="Rectangle-3" fill="#000000" fill-rule="evenodd" stroke="none" />
        <path d="M77 179.2L79.1001 179.2L79.1001 181.3L77 181.3L77 179.2Z" id="Rectangle-4" fill="#000000" fill-rule="evenodd" stroke="none" />
        <path d="M31.5085 98.7L36.3169 103.508L31.5086 108.317L26.7002 103.508L31.5085 98.7Z" id="Rectangle-5" fill="#B9B9B9" fill-rule="evenodd" stroke="#000000" stroke-width="1" />
      </g>
    </g>
    <path d="M79.02 27.1L79.02 0.0999756L109.7 14.1L131.7 32.6L138.92 54.6L131.7 112.1L123.12 112.1L116.7 103.1L123.12 54.7L79.02 27.1Z" id="New-shape-7" fill="#543131" fill-rule="evenodd" stroke="#543131" stroke-width="1" />
    <path d="M123.892 98.1001L128.7 102.908L123.892 107.717L119.083 102.908L123.892 98.1001Z" id="Rectangle-5" fill="#B9B9B9" fill-rule="evenodd" stroke="#000000" stroke-width="1" />
  </g>
</svg>