<?xml version="1.0" encoding="utf-8"?>
<svg width="155.90002px" height="189px" viewBox="0 0 155.90002 189" version="1.1" xmlns:xlink="http://www.w3.org/1999/xlink" xmlns="http://www.w3.org/2000/svg">
  <g id="hr2" transform="translate(0.5 0.5)">
    <g id="hr">
      <g id="HR">
        <g id="hr" transform="translate(14.799805 0)">
          <path d="M40.1001 141.5L51.1001 151.5L61.9001 155L61.9002 135L46.1001 123.5L46.1001 138.5L40.1001 141.5Z" id="New-shape-3" fill="#E9D6C5" fill-rule="evenodd" stroke="#E9D6C5" stroke-width="1" />
          <g id="face" transform="translate(24.69104 18.900024)">
            <g id="Head">
              <path d="M60.0313 122.567L49.0313 132.567L38.2312 136.067L38.2313 116.067L54.0313 104.567L54.0313 119.567L60.0313 122.567Z" id="New-shape-19" fill="#E6D1BE" fill-rule="evenodd" stroke="#E6D1BE" stroke-width="1" />
              <g id="choker" transform="translate(20.931152 114.52472)">
                <path d="M3.33826 0L0 3.47855L3.33826 6.95712L6.67665 3.47861L3.33826 0ZM3.41755 1.36795L1.37366 3.49771L3.41755 5.62747L5.46144 3.49768L3.41755 1.36795Z" id="Rectangle-Difference" fill="#000000" fill-rule="evenodd" stroke="none" />
                <path d="M8.82117 0.0853577L5.48291 3.5639L8.82117 7.04248L12.1596 3.56397L8.82117 0.0853577ZM8.90131 1.45297L6.85742 3.58273L8.90131 5.71249L10.9452 3.5827L8.90131 1.45297Z" id="Rectangle-Difference-2" fill="#000000" fill-rule="evenodd" stroke="none" />
                <path d="M14.251 0.0854187L10.9128 3.56397L14.2512 7.04254L17.5895 3.56403L14.251 0.0854187ZM14.3316 1.45309L12.2876 3.58286L14.3314 5.71262L16.3754 3.58282L14.3316 1.45309Z" id="Rectangle-Difference-3" fill="#000000" fill-rule="evenodd" stroke="none" />
                <path d="M19.7213 0.0854187L16.3831 3.56397L19.7213 7.04254L23.0596 3.56403L19.7213 0.0854187ZM19.8006 1.45343L17.7568 3.58319L19.8006 5.71295L21.8446 3.58316L19.8006 1.45343Z" id="Rectangle-Difference-4" fill="#000000" fill-rule="evenodd" stroke="none" />
                <path d="M25.1915 0.0153503L21.8533 3.4939L25.1915 6.97247L28.5298 3.49396L25.1915 0.0153503ZM25.272 1.38303L23.2283 3.51279L25.272 5.64255L27.3161 3.51276L25.272 1.38303Z" id="Rectangle-Difference-5" fill="#000000" fill-rule="evenodd" stroke="none" />
                <path d="M30.6618 0.0154419L27.3235 3.49399L30.6618 6.97256L34 3.49405L30.6618 0.0154419ZM30.7423 1.38312L28.6985 3.51288L30.7423 5.64264L32.7863 3.51285L30.7423 1.38312Z" id="Rectangle-Difference-6" fill="#000000" fill-rule="evenodd" stroke="none" />
              </g>
              <path d="M37.2093 0L0 26.7829L8.99379 95.5872L37.2093 116.367L37.2093 55.6699L37.2093 0Z" id="New-shape-17-Copy" fill="#E6D1BE" fill-rule="evenodd" stroke="#E6D1BE" stroke-width="1" />
              <g id="face_half" transform="matrix(-1 0 0 1 75.40918 0)">
                <path d="M37.2093 0L0 26.7829L8.99379 95.5872L37.2093 116.367L37.2093 0Z" id="New-shape-17-Copy" fill="#E9D6C5" fill-rule="evenodd" stroke="#E9D6C5" stroke-width="1" />
              </g>
              <path d="M68.0092 48.0246L60.0092 46.2L44.5092 46.2L44.5092 48.0246L57.1295 48.0246L63.5092 50L68.0092 48.0246Z" id="New-shape-18" fill="#000000" fill-rule="evenodd" stroke="#000000" stroke-width="1" />
              <path d="M24.7543 57.26L29.037 57.26L29.037 72.9603L24.7543 72.9603L24.7543 57.26Z" id="eye-3" fill="#000000" fill-rule="evenodd" stroke="none" />
              <path d="M47.4529 57.26L51.7356 57.26L51.7356 72.9603L47.4529 72.9603L47.4529 57.26Z" id="eye" fill="#000000" fill-rule="evenodd" stroke="none" />
              <path d="M17.9301 116.667L20.9301 116.667L20.9301 118.667L20.7079 118.667L17.9301 118.667L17.9301 116.667Z" id="Rectangle-8" fill="#D3D3D3" fill-opacity="0" fill-rule="evenodd" stroke="none" />
              <path d="M15.3641 119.731L19.8388 117.5L20.7312 119.29L20.3998 119.455L16.2566 121.521L15.3641 119.731Z" id="Rectangle-9" fill="#D3D3D3" fill-opacity="0" fill-rule="evenodd" stroke="none" />
            </g>
          </g>
          <path d="M84.9 141.5L134.9 167L140.1 188L62.9002 188L62.9002 156L74.4 152L84.9 141.5Z" id="New-shape-5" fill="#F2EC58" fill-rule="evenodd" stroke="#F2EC58" stroke-width="1" />
          <path d="M61.85 18.0092L61.85 0L29.7649 10.159L8.59024 23.0887L-3.05176e-05 101.59L-3.05176e-05 101.59L34.7906 129.758L24.0527 45.2538L61.85 18.0092Z" id="New-shape" fill="#79C9E5" fill-rule="evenodd" stroke="#79C9E5" stroke-width="1" />
          <path d="M62.8502 18.0092L62.8502 0L94.8428 10.159L115.956 23.0887L124.522 101.59L124.522 101.59L89.8316 129.758L100.538 45.7156L62.8502 18.0092Z" id="New-shape" fill="#FF9BF5" fill-rule="evenodd" stroke="#FF9BF5" stroke-width="1" />
        </g>
        <path d="M55.2002 141.5L5.2002 167L0 188L77.2 188L77.2 156L65.7002 152L55.2002 141.5Z" id="New-shape-5" fill="#E39F71" fill-rule="evenodd" stroke="#E39F71" stroke-width="1" />
      </g>
    </g>
    <path d="M47.0001 67.2247L55.0001 65.4001L70.5001 65.4001L70.5001 67.2247L57.8798 67.2247L51.5001 69.2001L47.0001 67.2247Z" id="New-shape-18" fill="#000000" fill-rule="evenodd" stroke="#000000" stroke-width="1" />
  </g>
</svg>