<?xml version="1.0" encoding="utf-8"?>
<svg width="173.00012px" height="215px" viewBox="0 0 173.00012 215" version="1.1" xmlns:xlink="http://www.w3.org/1999/xlink" xmlns="http://www.w3.org/2000/svg">
  <g id="pr" transform="translate(0.5 0.5)">
    <g id="pr">
      <path d="M72 173L72 214L102 214L102 173L72 173Z" id="New-shape-19" fill="#FFDF4F" fill-rule="evenodd" stroke="#FFDF4F" stroke-width="1" />
      <g id="PR">
        <g id="pr" transform="translate(40.677734 44.432755)">
          <path d="M23.2222 122.567L34.2222 132.567L45.0222 136.067L45.0222 111.567L29.2222 104.567L29.2222 119.567L23.2222 122.567Z" id="New-shape-3" fill="#886656" fill-rule="evenodd" stroke="#886656" stroke-width="1" />
          <g id="face">
            <g id="Head">
              <path d="M67.822 122.57L56.822 132.57L46.022 136.07L46.022 119.57L46.022 119.57L46.022 111.568L61.822 104.57L61.822 119.57L67.822 122.57Z" id="New-shape-19" fill="#9C764E" fill-rule="evenodd" stroke="#9C764E" stroke-width="1" />
              <path d="M45 0L0 26.7829L10.8769 95.5872L45 111.567L45 55.6699L45 0Z" id="New-shape-17-Copy" fill="#9C764E" fill-rule="evenodd" stroke="#9C764E" stroke-width="1" />
              <g id="face_half" transform="matrix(-1 0 0 1 90.99072 0)">
                <path d="M45 0L0 26.7829L10.8769 95.5872L45 111.567L45 0Z" id="New-shape-17-Copy" fill="#886656" fill-rule="evenodd" stroke="#886656" stroke-width="1" />
              </g>
              <path d="M32.5449 57.2614L35.5449 57.2614L35.5449 72.9617L32.5449 72.9617L32.5449 57.2614Z" id="eye-3" fill="#000000" fill-rule="evenodd" stroke="none" />
              <path d="M56.2437 57.2615L59.2437 57.2615L59.2437 72.9618L56.2437 72.9618L56.2437 57.2615Z" id="eye" fill="#000000" fill-rule="evenodd" stroke="none" />
              <path d="M19.9348 50.4567L26.7067 47.498L40.7659 47.899L38.3127 50.0611L36.0312 50.3413L19.9348 50.4567Z" id="New-shape-17" fill="#000000" fill-rule="evenodd" stroke="#000000" stroke-width="1" />
              <path d="M25.7207 116.67L28.7207 116.67L28.7207 118.67L28.4986 118.67L25.7207 118.67L25.7207 116.67Z" id="Rectangle-8" fill="#D3D3D3" fill-opacity="0" fill-rule="evenodd" stroke="none" />
              <path d="M23.1548 119.734L27.6294 117.503L28.5219 119.293L28.1904 119.458L24.0472 121.524L23.1548 119.734Z" id="Rectangle-9" fill="#D3D3D3" fill-opacity="0" fill-rule="evenodd" stroke="none" />
            </g>
          </g>
          <path d="M68.8223 122.567L118.722 148.567L123.922 169.567L57.8223 169.567L57.8223 132.067L68.8223 122.567Z" id="New-shape-5" fill="#1F1158" fill-rule="evenodd" stroke="#1F1158" stroke-width="1" />
        </g>
        <path d="M86 43.5L86 0L61.5 0L17.5 20.5L0 71L17.5 120L50.5 128.5L41.4 71L86 43.5Z" id="New-shape-7" fill="#000000" fill-rule="evenodd" stroke="#000000" stroke-width="1" />
      </g>
      <path d="M111.883 94.8894L105.111 91.9306L91.0498 92.3314L93.5033 94.4936L95.7851 94.7738L111.883 94.8894Z" id="New-shape-17" fill="#000000" fill-rule="evenodd" stroke="#000000" stroke-width="1" />
      <path d="M86 43.5L86 0L110.5 0L154.5 20.5L172 71L154.5 120L121.5 128.5L130.6 71L86 43.5Z" id="New-shape-7" fill="#000000" fill-rule="evenodd" stroke="#000000" stroke-width="1" />
      <path d="M63 167L13.1001 193L7.8999 214L73.9999 214L73.9999 176.5L63 167Z" id="New-shape-5" fill="#1F1158" fill-rule="evenodd" stroke="#1F1158" stroke-width="1" />
      <path d="M63 167L65.5 187.5L74 201.5L74 176.5L63 167Z" id="New-shape-18" fill="#05030E" fill-rule="evenodd" stroke="#05030E" stroke-width="1" />
      <path d="M109.5 167L107 187.5L98.5 201.5L98.5 176.5L109.5 167Z" id="New-shape-6" fill="#05030E" fill-rule="evenodd" stroke="#05030E" stroke-width="1" />
      <path d="M84.8999 183.4L87 183.4L87 185.5L84.8999 185.5L84.8999 183.4Z" id="Rectangle" fill="#000000" fill-rule="evenodd" stroke="none" />
      <path d="M84.8999 187.5L87 187.5L87 189.6L84.8999 189.6L84.8999 187.5Z" id="Rectangle-2" fill="#000000" fill-rule="evenodd" stroke="none" />
      <path d="M84.8999 191.5L87 191.5L87 193.6L84.8999 193.6L84.8999 191.5Z" id="Rectangle-3" fill="#000000" fill-rule="evenodd" stroke="none" />
      <path d="M84.8999 195.5L87 195.5L87 197.6L84.8999 197.6L84.8999 195.5Z" id="Rectangle-4" fill="#000000" fill-rule="evenodd" stroke="none" />
      <path d="M35.1916 124.621L40 129.43L35.1917 134.238L30.3833 129.43L35.1916 124.621Z" id="Rectangle-5" fill="#FFDF4F" fill-rule="evenodd" stroke="#000000" stroke-width="1" />
      <path d="M138.808 124.2L143.617 129.008L138.808 133.817L134 129.008L138.808 124.2Z" id="Rectangle-5" fill="#FFDF4F" fill-rule="evenodd" stroke="#000000" stroke-width="1" />
    </g>
  </g>
</svg>