<?xml version="1.0" encoding="utf-8"?>
<svg width="183.19995px" height="189.6px" viewBox="0 0 183.19995 189.6" version="1.1" xmlns:xlink="http://www.w3.org/1999/xlink" xmlns="http://www.w3.org/2000/svg">
  <g id="programmer" transform="translate(0 0.5)">
    <g id="IT" transform="translate(0.6999512 1.5498962)">
      <g id="it">
        <g id="worker1">
          <g id="neck" transform="translate(68 102.11717)">
            <path d="M44.55 0L44.55 12.2098L22.5 16.7081L22.5 5.78358L44.55 0Z" id="New-shape-2" fill="#E5D1C0" fill-rule="evenodd" stroke="#E5D1C0" stroke-width="1" />
            <path d="M0 0L0 12.2098L22.05 16.7081L22.05 5.78358L0 0Z" id="New-shape-3" fill="#E2D2C4" fill-rule="evenodd" stroke="#E2D2C4" stroke-width="1" />
          </g>
          <g id="Head" transform="translate(48.30005 0)">
            <g id="face_half-3">
              <path d="M42.2001 0L17.7007 5.99999L0 25L0 77L17.7007 101.675L42.2002 110.493L42.2001 0Z" id="New-shape-17" fill="#E5D1C0" fill-rule="evenodd" stroke="#E5D1C0" stroke-width="1" />
            </g>
            <g id="face_half-4" transform="matrix(-1 0 0 1 85.30017 0)">
              <path d="M42.2 0L17.7006 5.99999L0 25L0 77L17.7006 101.675L42.2 110.493L42.2 0Z" id="New-shape-17" fill="#E5D1C0" fill-rule="evenodd" stroke="#E5D1C0" stroke-width="1" />
            </g>
            <path d="M20.9472 49.3666L35.8646 50.7487L35.0339 52.2118L24.4779 53.8006L20.4999 53.432L20.9472 49.3666Z" id="New-shape-17" fill="#FFE397" fill-rule="evenodd" stroke="#FFE397" stroke-width="1" />
            <path d="M64.3172 49.3652L49.4001 50.7499L50.2311 52.2128L60.7873 53.7998L64.7652 53.4306L64.3172 49.3652Z" id="New-shape-18" fill="#FFE397" fill-rule="evenodd" stroke="#FFE397" stroke-width="1" />
          </g>
          <g id="torso" transform="translate(0 110.471176)">
            <path d="M66.8 0.0287476L66.8 37.529L68 76.529C68 76.529 65.3705 76.523 70.8704 76.5355C76.3704 76.548 89.9999 76.5789 89.9999 76.5789L89.9999 6.03352L66.8 0.0287476Z" id="New-shape-2" fill="#2D282D" fill-rule="evenodd" stroke="#2D282D" stroke-width="1" />
            <path d="M113 0L118 76.5789L90.5112 76.5789L90.5112 6.03349L113 0Z" id="New-shape-2" fill="#2D282D" fill-rule="evenodd" stroke="#2D282D" stroke-width="1" />
            <path d="M113 76.529L113.8 0.0287476L175.156 23.4006L181.8 76.5789L114.181 76.5789L181.8 76.5789L113 76.529Z" id="New-shape" fill="#2D282D" fill-rule="evenodd" stroke="#2D282D" stroke-width="1" />
            <path d="M69.5518 76.5789L65.8 0.0287476L6.58458 23.4006L0 76.5789L0 76.5789L69.5518 76.5789Z" id="New-shape-6" fill="#2D282D" fill-rule="evenodd" stroke="#2D282D" stroke-width="1" />
          </g>
        </g>
        <path d="M78.8 59.4999L81.8 59.4999L81.8 68.4999L78.8 68.4999L78.8 59.4999Z" id="eye" fill="#000000" fill-rule="evenodd" stroke="none" />
      </g>
    </g>
    <path d="M109.5 174L95.3969 168.062L96.1392 164.722L94.6546 161.01L91.6856 159.526L91.6856 139.113L109.5 174Z" id="New-shape-5" fill="#1793D1" fill-rule="evenodd" stroke="#1793D1" stroke-width="1" />
    <path d="M73.5 63.75C73.5 59.7459 76.7459 56.5 80.75 56.5C84.7541 56.5 88 59.7459 88 63.75C88 67.7541 84.7541 71 80.75 71C76.7459 71 73.5 67.7541 73.5 63.75Z" id="Ellipse" fill="#D3D3D3" fill-opacity="0.5686275" fill-rule="evenodd" stroke="#000000" stroke-width="1.5" />
    <path d="M102.5 60.5L105.5 60.5L105.5 69.5L102.5 69.5L102.5 60.5Z" id="eye" fill="#000000" fill-rule="evenodd" stroke="none" />
    <path d="M96.5 63.75C96.5 59.7459 99.7459 56.5 103.75 56.5C107.754 56.5 111 59.7459 111 63.75C111 67.7541 107.754 71 103.75 71C99.7459 71 96.5 67.7541 96.5 63.75Z" id="Ellipse-2" fill="#D3D3D3" fill-opacity="0.5686275" fill-rule="evenodd" stroke="#000000" stroke-width="1.5" />
    <path d="M48.5 59.5L65.6859 29.5L66 7L91.2694 20L91.2694 0L91.2694 0L91.2694 0L65.6859 6.5L48.5 24.5L48.5 59.5Z" id="New-shape-2" fill="#FFE397" fill-rule="evenodd" stroke="#FFE397" stroke-width="1" />
    <path d="M135.07 59.5L117.791 29.5L117.5 7L92.0696 20L92.0696 0L92.0696 0L92.0696 0L117.791 6.5L135.07 24.5L135.07 59.5Z" id="New-shape-2" fill="#FFE397" fill-rule="evenodd" stroke="#FFE397" stroke-width="1" />
    <path d="M0.880005 183.1L43.8999 183.198L43.8999 189.1L0 189.1L0.880005 183.1Z" id="Rectangle" fill="#E5D1C0" fill-rule="evenodd" stroke="none" />
    <path d="M182.32 183.1L139.3 183.198L139.3 189.1L183.2 189.1L182.32 183.1Z" id="Rectangle-2" fill="#E5D1C0" fill-rule="evenodd" stroke="none" />
    <path d="M73.5 174L87.6031 168.062L86.8608 164.722L88.3454 161.01L91.3144 159.526L91.3144 139.113L73.5 174Z" id="New-shape-4" fill="#1793D1" fill-rule="evenodd" stroke="#1793D1" stroke-width="1" />
    <path d="M86 58.5C86 58.5 89.5 56.5 92.1 56.5C94.7 56.5 98.5 58.5 98.5 58.5L97.4 60C97.4 60 94.7 57.5 92.1 57.5C89.5 57.5 87 60 87 60L86 58.5Z" id="Rectangle-3" fill="#000000" fill-rule="evenodd" stroke="none" />
  </g>
</svg>