<?xml version="1.0" encoding="utf-8"?>
<svg width="184.19995px" height="190.25012px" viewBox="0 0 184.19995 190.25012" version="1.1" xmlns:xlink="http://www.w3.org/1999/xlink" xmlns="http://www.w3.org/2000/svg">
  <defs>
    <linearGradient gradientUnits="userSpaceOnUse" x1="-26.890575" y1="-17.278595" x2="60.189022" y2="47.545013" id="gradient_1">
      <stop offset="0%" stop-color="#FFFFFF" />
      <stop offset="0%" stop-color="#F3F2FC" />
      <stop offset="0%" stop-color="#FDFDFE" />
      <stop offset="42.592594%" stop-color="#FAFAFD" />
      <stop offset="100%" stop-color="#9B92F7" />
    </linearGradient>
    <linearGradient gradientUnits="userSpaceOnUse" x1="0" y1="0" x2="34.6716" y2="36.559956" id="gradient_2">
      <stop offset="0%" stop-color="#9589F8" />
      <stop offset="100%" stop-color="#5D5782" />
    </linearGradient>
    <linearGradient gradientUnits="userSpaceOnUse" x1="2.1710052" y1="1.7468063" x2="12.420027" y2="5.7562013" id="gradient_3">
      <stop offset="0%" stop-color="#FFFFFF" />
      <stop offset="51.112354%" stop-color="#988DF8" />
      <stop offset="100%" stop-color="#524C76" />
    </linearGradient>
  </defs>
  <g id="programmer2" transform="translate(0.5 0.5)">
    <g id="programmer">
      <g id="IT" transform="translate(0.6999512 3.0517578E-05)">
        <g id="it">
          <g id="worker1">
            <g id="neck" transform="translate(68 103.81717)">
              <path d="M44.55 0L44.55 12.2098L22.5 16.7081L22.5 5.78358L44.55 0Z" id="New-shape-2" fill="#E5D1C0" fill-rule="evenodd" stroke="#E5D1C0" stroke-width="1" />
              <path d="M0 0L0 12.2098L22.05 16.7081L22.05 5.78358L0 0Z" id="New-shape-3" fill="#E2D2C4" fill-rule="evenodd" stroke="#E2D2C4" stroke-width="1" />
            </g>
            <g id="Head" transform="translate(48.30005 0)">
              <g id="face_half-3" transform="translate(0 1.7000122)">
                <path d="M42.2001 0L17.7007 5.99999L0 25L0 77L17.7007 101.675L42.2002 110.493L42.2001 0Z" id="New-shape-17" fill="#E5D1C0" fill-rule="evenodd" stroke="#E5D1C0" stroke-width="1" />
              </g>
              <g id="face_half-4" transform="matrix(-1 0 0 1 85.1001 0)">
                <path d="M42.2 0L17.7006 5.99999L0 25L0 77L17.7006 101.675L42.2 110.493L42.2 0Z" id="New-shape-17" fill="#E5D1C0" fill-rule="evenodd" stroke="#E5D1C0" stroke-width="1" />
              </g>
              <path d="M20.9711 50.8398L35.8646 52.4487L35.2328 52.0196L25.0229 50.3152L21.0513 49.8862L20.9711 50.8398Z" id="New-shape-17" fill="#000000" fill-rule="evenodd" stroke="#000000" stroke-width="1" />
              <path d="M64.0979 50.8037L49.2044 52.4125L49.8362 51.9834L60.0461 50.2791L64.0177 49.8501L64.0979 50.8037Z" id="New-shape-19" fill="#000000" fill-rule="evenodd" stroke="#000000" stroke-width="1" />
            </g>
            <g id="torso" transform="translate(0 112.17117)">
              <path d="M66.8 0.0287476L66.8 37.529L68 76.529C68 76.529 65.3705 76.523 70.8704 76.5355C76.3704 76.548 89.9999 76.5789 89.9999 76.5789L89.9999 6.03352L66.8 0.0287476Z" id="New-shape-2" fill="#2D282D" fill-rule="evenodd" stroke="#2D282D" stroke-width="1" />
              <path d="M113 0L118 76.5789L90.5112 76.5789L90.5112 6.03349L113 0Z" id="New-shape-2" fill="#2D282D" fill-rule="evenodd" stroke="#2D282D" stroke-width="1" />
              <path d="M113 76.529L113.8 0.0287476L175.156 23.4006L181.8 76.5789L114.181 76.5789L181.8 76.5789L113 76.529Z" id="New-shape" fill="#2D282D" fill-rule="evenodd" stroke="#2D282D" stroke-width="1" />
              <path d="M69.5518 76.5789L65.8 0.0287476L6.58458 23.4006L0 76.5789L0 76.5789L69.5518 76.5789Z" id="New-shape-6" fill="#2D282D" fill-rule="evenodd" stroke="#2D282D" stroke-width="1" />
            </g>
          </g>
          <path d="M79.8 61.2L81.8 61.2L81.8 70.2L79.8 70.2L79.8 61.2Z" id="eye" fill="#000000" fill-rule="evenodd" stroke="none" />
        </g>
      </g>
      <path d="M102.5 60.6501L104.5 60.6501L104.5 69.6501L102.5 69.6501L102.5 60.6501Z" id="eye" fill="#000000" fill-rule="evenodd" stroke="none" />
      <path d="M48.5 59.6501L65.6859 29.6501L66 7.15015L91.2694 20.1501L91.2694 0.150146L91.2694 0.150146L91.2694 0.150146L65.6859 6.65015L48.5 24.6502L48.5 59.6501Z" id="New-shape-2" fill="#000000" fill-rule="evenodd" stroke="#000000" stroke-width="1" />
      <path d="M135.07 59.6501L117.791 29.6501L117.5 7.15015L92.0696 20.1501L92.0696 0.150146L92.0696 0.150146L92.0696 0.150146L117.791 6.65015L135.07 24.6502L135.07 59.6501Z" id="New-shape-2" fill="#000000" fill-rule="evenodd" stroke="#000000" stroke-width="1" />
      <path d="M0.880005 183.25L43.8999 183.348L43.8999 189.25L0 189.25L0.880005 183.25Z" id="Rectangle" fill="#E5D1C0" fill-rule="evenodd" stroke="none" />
      <path d="M182.32 183.25L139.3 183.348L139.3 189.25L183.2 189.25L182.32 183.25Z" id="Rectangle-2" fill="#E5D1C0" fill-rule="evenodd" stroke="none" />
    </g>
    <g id="Group" transform="translate(69.39966 134.80414)">
      <path d="M14.72 0.69L5.98 5.52L1.84 12.65L1.84 18.86L11.04 24.15L0 35.88L0 40.48L1.84 45.77L7.59 48.346L11.04 48.346L18.63 45.77L28.98 40.48L43.93 27.37L46 24.15L46 20.7L43.93 16.56L23 0L14.72 0.69Z" id="New-shape-2" fill="url(#gradient_1)" fill-rule="evenodd" stroke="url(#gradient_2)" stroke-width="5" />
      <path d="M17.5037 10.2791C18.7827 8.23234 22.1773 8.04646 25.0858 9.86392C27.9944 11.6814 29.3154 14.8139 28.0365 16.8607C26.7575 18.9074 23.3629 19.0933 20.4543 17.2759C17.5458 15.4584 16.2248 12.3258 17.5037 10.2791Z" id="Ellipse" fill="#D3D3D3" fill-rule="evenodd" stroke="url(#gradient_3)" stroke-width="3.5" />
    </g>
  </g>
</svg>