<?xml version="1.0" encoding="utf-8"?>
<svg width="182.80005px" height="188.5499px" viewBox="0 0 182.80005 188.5499" version="1.1" xmlns:xlink="http://www.w3.org/1999/xlink" xmlns="http://www.w3.org/2000/svg">
  <g id="scientist2" transform="translate(0.5 0.5)">
    <g id="scientist">
      <g id="scientist">
        <g id="scientist">
          <g id="worker1" transform="translate(0 0.5)">
            <path d="M71 54.5146L75 54.5146L75 67.5146L71 67.5146L71 54.5146Z" id="eye" fill="#000000" fill-rule="evenodd" stroke="none" />
            <g id="neck" transform="translate(68 102.117035)">
              <path d="M44.55 0L44.55 12.2098L22.5 16.7081L22.5 5.78358L44.55 0Z" id="New-shape-2" fill="#E3CFBD" fill-rule="evenodd" stroke="#E3CFBD" stroke-width="1" />
              <path d="M0 0L0 12.2098L22.05 16.7081L22.05 5.78358L0 0Z" id="New-shape-3" fill="#E2D2C4" fill-rule="evenodd" stroke="#E2D2C4" stroke-width="1" />
            </g>
            <g id="Head" transform="translate(53.460205 0)">
              <g id="face_half-3">
                <path d="M37.04 0L12.5405 5.99999L0 25.0957L0 63.6172L12.5405 101.675L37.04 110.493L37.04 0Z" id="New-shape-17" fill="#E3CFBD" fill-rule="evenodd" stroke="#E3CFBD" stroke-width="1" />
                <path d="M37.0799 0L61.5793 5.99999L74.1199 25.0957L74.1199 63.6171L61.5794 101.675L37.0799 110.493L37.0799 0Z" id="New-shape-17" fill="#E2D2C4" fill-rule="evenodd" stroke="#E2D2C4" stroke-width="1" />
              </g>
              <path d="M51.5398 55.0649L55.5398 55.0649L55.5398 67.0649L51.5398 67.0649L51.5398 55.0649Z" id="eye" fill="#000000" fill-rule="evenodd" stroke="none" />
              <path d="M9.33639 46.5548L31.9956 48.7506L30.817 50.1771L15.5397 48.7505L9.33649 48.7506L9.33639 46.5548Z" id="New-shape-17" fill="#474747" fill-rule="evenodd" stroke="#474747" stroke-width="1" />
            </g>
            <g id="torso" transform="translate(0 110.47104)">
              <path d="M68 0L70.6397 36.729L76.9999 76.5789L89.9999 76.5789L89.9999 6.03349L68 0Z" id="New-shape-2" fill="#F1F1F1" fill-rule="evenodd" stroke="#F1F1F1" stroke-width="1" />
              <path d="M113 0L110.302 36.729L103.8 76.5789L90.5112 76.5789L90.5112 6.03349L113 0Z" id="New-shape-2" fill="#D8D8D8" fill-rule="evenodd" stroke="#D8D8D8" stroke-width="1" />
              <path d="M104.51 76.5789L114 0L175.156 23.4006L181.8 76.5789L104.514 76.5789L181.8 76.5789L104.51 76.5789Z" id="New-shape" fill="#D8D8D8" fill-rule="evenodd" stroke="#D8D8D8" stroke-width="1" />
              <path d="M76.5939 76.5789L67 0L6.58458 23.4006L0 76.5789L77 76.5789L0 76.5789L76.5939 76.5789Z" id="New-shape-6" fill="#F1F1F1" fill-rule="evenodd" stroke="#F1F1F1" stroke-width="1" />
              <path d="M38 55.743L64 55.743L64 57.743L38 57.743L38 55.743Z" id="Rectangle-2" fill="#000000" fill-rule="evenodd" stroke="none" />
            </g>
          </g>
          <path d="M53.3 56L57.3 40L65.4821 5.98344L89.8 9.43904L89.8 0L65.8 5.5L53.3 24.5L53.3 56Z" id="New-shape" fill="#474747" fill-rule="evenodd" stroke="#474747" stroke-width="1" />
          <path d="M76 55.06L72 55.06L72 67.06L76 67.06L76 55.06Z" id="eye" fill="#000000" fill-rule="evenodd" stroke="none" />
          <path d="M127.3 56.014L123.3 40.014L115.118 5.99745L90.8 9.45305L90.8 0.0140076L114.8 5.51401L127.3 24.514L127.3 56.014Z" id="New-shape" fill="#585858" fill-rule="evenodd" stroke="#585858" stroke-width="1" />
          <path d="M96.6001 167.014L101.6 167.014L101.6 172.014L96.6001 172.014L96.6001 167.014Z" id="Rectangle-4" fill="#000000" fill-rule="evenodd" stroke="none" />
          <path d="M96.6001 156.014L101.6 156.014L101.6 161.014L96.6001 161.014L96.6001 156.014Z" id="Rectangle-5" fill="#000000" fill-rule="evenodd" stroke="none" />
          <path d="M96.6001 134.014L101.6 134.014L101.6 139.014L96.6001 139.014L96.6001 134.014Z" id="Rectangle-6" fill="#000000" fill-rule="evenodd" stroke="none" />
          <path d="M96.6001 145.014L101.6 145.014L101.6 150.014L96.6001 150.014L96.6001 145.014Z" id="Rectangle-7" fill="#000000" fill-rule="evenodd" stroke="none" />
        </g>
      </g>
    </g>
    <path d="M120.047 47.3474L97.3925 49.5427L98.571 50.9692L113.845 49.543L120.047 49.5432L120.047 47.3474Z" id="New-shape-17" fill="#474747" fill-rule="evenodd" stroke="#474747" stroke-width="1" />
  </g>
</svg>