<?xml version="1.0" encoding="utf-8"?>
<svg width="182.79993px" height="189.01404px" viewBox="0 0 182.79993 189.01404" version="1.1" xmlns:xlink="http://www.w3.org/1999/xlink" xmlns="http://www.w3.org/2000/svg">
  <g id="worker3" transform="translate(0.5 0.5)">
    <g id="worker1">
      <g id="worker1" transform="translate(0 0.5)">
        <g id="neck" transform="translate(68 102.117035)">
          <path d="M44.55 0L44.55 12.2098L22.5 16.7081L22.5 5.78358L44.55 0Z" id="New-shape-2" fill="#E5C9B0" fill-rule="evenodd" stroke="#E5C9B0" stroke-width="1" />
          <path d="M0 0L0 12.2098L22.05 16.7081L22.05 5.78358L0 0Z" id="New-shape-3" fill="#E9D0BA" fill-rule="evenodd" stroke="#E9D0BA" stroke-width="1" />
        </g>
        <g id="Head" transform="translate(53.460205 0)">
          <g id="face_half-3">
            <path d="M37.04 0L12.5405 5.99999L0 25.0957L0 63.6171L12.5405 101.675L37.04 110.493L37.04 0Z" id="New-shape-17" fill="#E5C9B0" fill-rule="evenodd" stroke="#E5C9B0" stroke-width="1" />
            <path d="M37.0799 0L61.5793 5.99999L74.1199 25.0957L74.1199 63.6171L61.5794 101.675L37.0799 110.493L37.0799 0Z" id="New-shape-17" fill="#E9D0BA" fill-rule="evenodd" stroke="#E9D0BA" stroke-width="1" />
          </g>
          <path d="M51.5398 55.0646L55.5398 55.0646L55.5398 67.0646L51.5398 67.0646L51.5398 55.0646Z" id="eye" fill="#000000" fill-rule="evenodd" stroke="none" />
          <path d="M6.33643 46.5548L28.9957 48.7506L27.817 50.1771L11.9213 51.2047L5.87885 50.6192L6.33643 46.5548Z" id="New-shape-17" fill="#000000" fill-rule="evenodd" stroke="#000000" stroke-width="1" />
        </g>
        <path d="M119.465 46.361L96.8023 48.7629L97.9785 50.2503L113.872 51.2524L119.916 50.6119L119.465 46.361Z" id="New-shape-4" fill="#000000" fill-rule="evenodd" stroke="#000000" stroke-width="1" />
        <g id="torso" transform="translate(0 110.47104)">
          <path d="M68 0L70.6397 36.729L76.9999 76.5789L89.9999 76.5789L89.9999 6.03349L68 0Z" id="New-shape-2" fill="#FFCC8E" fill-rule="evenodd" stroke="#FFCC8E" stroke-width="1" />
          <path d="M76 26.4545C76 26.4545 90 26.4545 90 26.4545L90 37.5933L83 37.5933C83 37.5933 76 26.4545 76 26.4545Z" id="New-shape-5" fill="#6DC944" fill-rule="evenodd" stroke="#6DC944" stroke-width="1" />
          <path d="M113 0L110.302 36.729L103.8 76.5789L90.5113 76.5789L90.5114 6.03349L113 0Z" id="New-shape-2" fill="#F8B461" fill-rule="evenodd" stroke="#F8B461" stroke-width="1" />
          <path d="M104.51 76.5789L114 0L175.155 23.4006L181.8 76.5789L104.513 76.5789L181.8 76.5789L104.51 76.5789Z" id="New-shape" fill="#F8B461" fill-rule="evenodd" stroke="#F8B461" stroke-width="1" />
          <path d="M119 54L140 54L140 57.7L119 57.7L119 54Z" id="Rectangle" fill="#E99B3C" fill-rule="evenodd" stroke="none" />
          <path d="M76.5939 76.5789L67 0L6.58458 23.4006L0 76.5789L77 76.5789L0 76.5789L76.5939 76.5789Z" id="New-shape-6" fill="#FFCC8E" fill-rule="evenodd" stroke="#FFCC8E" stroke-width="1" />
          <path d="M90 76.5545L90 49.276L90 37.5932L97.1555 37.5932L104 76.5545L90 76.5545Z" id="New-shape-5" fill="#6DC944" fill-rule="evenodd" stroke="#6DC944" stroke-width="1" />
          <path d="M104.311 26.4545C104.311 26.4545 90.4999 26.4545 90.4999 26.4545L90.4999 37.5933L97.1555 37.5933C97.1555 37.5933 104.311 26.4545 104.311 26.4545Z" id="New-shape-4" fill="#4B922B" fill-rule="evenodd" stroke="#4B922B" stroke-width="1" />
          <path d="M90 77.0429L90 38.0573L83 38.0573L75 76.5788L90 76.5788" id="New-shape-6" fill="#4B922B" fill-rule="evenodd" stroke="#4B922B" stroke-width="1" />
          <path d="M90 6.0641L70.5 33.4468L68 0.0306091L90 6.0641Z" id="New-shape-3" fill="#FFB65C" fill-rule="evenodd" stroke="#FFB65C" stroke-width="1" />
        </g>
        <path d="M90.5 116.505L111.5 144.816L113 110.471L90.5 116.505Z" id="New-shape-3" fill="#E99B3C" fill-rule="evenodd" stroke="#E99B3C" stroke-width="1" />
      </g>
      <path d="M127.5 56L123.445 40L120.404 30L104.185 20.5L90.5 20.5L90.5 20.5L90.5 0L114.829 5.5L127.5 24.5L127.5 56Z" id="New-shape-2" fill="#000000" fill-rule="evenodd" stroke="#000000" stroke-width="1" />
      <path d="M53 56L57 40L60 30L76 20.5L89.5 20.5L89.5 20.5L89.5 0L65.5 5.5L53 24.5L53 56Z" id="New-shape" fill="#000000" fill-rule="evenodd" stroke="#000000" stroke-width="1" />
      <path d="M71 56L75 56L75 68L71 68L71 56Z" id="eye" fill="#000000" fill-rule="evenodd" stroke="none" />
    </g>
  </g>
</svg>